<?xml version="1.0" encoding="UTF-8"?>
<svg version="1.1" xmlns="http://www.w3.org/2000/svg" width="500" height="500">
<path d="M0 0 C8.05498692 7.32547867 12.56500793 17.43793105 13.6953125 28.1953125 C13.6953125 29.5153125 13.6953125 30.8353125 13.6953125 32.1953125 C14.8296875 32.1953125 15.9640625 32.1953125 17.1328125 32.1953125 C23.16053216 32.98618352 26.89950628 36.66787187 30.6953125 41.1953125 C37.60414101 52.61500234 38.67252851 65.50171496 38.8359375 78.55859375 C38.86494141 80.50668945 38.86494141 80.50668945 38.89453125 82.49414062 C38.92363763 84.51308709 38.94531801 86.53087746 38.94580078 88.55004883 C38.94913819 90.53222993 38.98587667 92.51426574 39.0234375 94.49609375 C39.0327832 95.66309814 39.04212891 96.83010254 39.05175781 98.0324707 C39.87796352 102.09297712 41.59720192 103.54058987 44.6953125 106.1953125 C51.33822401 113.45047392 54.39909001 122.07263828 53.9765625 131.94921875 C52.60009198 142.94186528 47.3627259 151.70830078 38.82421875 158.69140625 C32.18199123 163.38362202 25.74262967 164.85930761 17.6953125 165.1953125 C17.60056641 166.21625 17.60056641 166.21625 17.50390625 167.2578125 C15.73336717 181.2730271 9.61644613 193.35509779 0.6953125 204.1953125 C0.09203125 204.97261719 -0.51125 205.74992188 -1.1328125 206.55078125 C-4.55597236 210.72904991 -7.92315578 213.67840646 -12.50317383 216.46459961 C-18.00563066 219.66134032 -18.00563066 219.66134032 -21.2421875 224.92578125 C-21.3772434 231.04550172 -19.98646731 238.32430735 -15.69921875 242.9140625 C-15.23902344 243.336875 -14.77882812 243.7596875 -14.3046875 244.1953125 C-13.3971875 243.7209375 -12.4896875 243.2465625 -11.5546875 242.7578125 C-6.47547234 240.31588214 -2.23153555 240.04671896 3.36013794 240.04814148 C4.13645848 240.04446479 4.91277902 240.0407881 5.71262443 240.037 C8.31639825 240.02597883 10.92013214 240.02212196 13.52392578 240.01831055 C15.39004136 240.01204466 17.2561557 240.00539775 19.12226868 239.99839783 C25.25337863 239.97736804 31.3844888 239.96699571 37.515625 239.95703125 C39.62781665 239.95298314 41.74000817 239.9488662 43.85219955 239.94468117 C53.77700597 239.92563103 63.70180495 239.91140023 73.62662613 239.9030692 C85.07477595 239.89330033 96.52273223 239.86698912 107.97081387 239.82656831 C116.82448238 239.79638308 125.6780955 239.78159799 134.53181446 239.77828819 C139.81724757 239.77594025 145.1024739 239.76701315 150.38785172 239.74182701 C155.36357954 239.71849957 160.33896511 239.71433189 165.31473351 239.72458839 C167.13596296 239.72508274 168.95720953 239.71879215 170.77838707 239.70503235 C181.25841223 239.63031346 190.40623291 239.75875635 199.28125 246.01953125 C209.30503221 256.45914722 209.84593111 266.88418714 209.84057617 280.76489258 C209.84561409 282.64427773 209.84561409 282.64427773 209.85075378 284.56163025 C209.85860335 287.98328428 209.86193003 291.4048776 209.86256957 294.82653642 C209.86328261 296.96893651 209.86542174 299.11133033 209.86806679 301.25372887 C209.87730572 308.74117814 209.88140351 316.22860967 209.88061523 323.71606445 C209.8800149 330.67393202 209.89056171 337.63172194 209.9063589 344.58956987 C209.91947349 350.58132883 209.92479749 356.57306254 209.92415982 362.56483573 C209.92390598 366.13541791 209.92669407 369.70593103 209.93733788 373.27649879 C209.94889989 377.26356869 209.94424814 381.25046668 209.93823242 385.23754883 C209.94385193 386.40619476 209.94947144 387.5748407 209.95526123 388.77890015 C209.91773993 398.59619332 209.12818616 406.86490622 203.6953125 415.1953125 C204.48035156 415.14890625 205.26539063 415.1025 206.07421875 415.0546875 C212.91261668 414.81974868 217.24394046 414.90380686 222.6953125 419.1953125 C226.08227376 422.9100442 226.2147742 426.67640365 226.03515625 431.51171875 C225.04735395 439.31195073 221.69984378 444.84568433 216.28125 450.40625 C209.21892694 455.29226807 202.02437223 456.7893066 193.57608032 456.73016357 C192.60820095 456.7392258 191.64032159 456.74828803 190.64311254 456.75762486 C187.42675258 456.78277791 184.2110758 456.7796812 180.99462891 456.77636719 C178.67766965 456.78834603 176.36071836 456.80195903 174.04377747 456.81707764 C167.76892767 456.85232363 161.49429624 456.86178511 155.21935701 456.86434078 C151.29510398 456.86718879 147.37090604 456.87573728 143.44666672 456.88632965 C130.4515055 456.92139691 117.45649869 456.94001323 104.46129234 456.93700776 C103.41262548 456.93676802 103.41262548 456.93676802 102.34277344 456.93652344 C101.64280048 456.93635991 100.94282752 456.93619639 100.22164325 456.93602791 C88.87817035 456.93440215 77.53522857 456.97268831 66.19190927 457.0290769 C54.52072055 457.08663388 42.84981488 457.11342087 31.17848146 457.1107018 C24.63536348 457.10968366 18.09284731 457.12098831 11.54985428 457.163414 C5.39512983 457.20223556 -0.75842036 457.20239099 -6.91318703 457.17334747 C-9.16575276 457.16917627 -11.41839257 457.17854393 -13.67083168 457.20278931 C-34.2787274 457.41016719 -34.2787274 457.41016719 -43.10233498 450.00880814 C-46.43051289 447.26826771 -49.13040177 447.09132673 -53.3046875 447.1953125 C-54.85542969 447.16050781 -54.85542969 447.16050781 -56.4375 447.125 C-62.88967419 447.01521847 -62.88967419 447.01521847 -69.29237366 447.69651794 C-74.42630752 448.4485805 -79.56989353 448.32640814 -84.74780273 448.30883789 C-86.44645729 448.30905693 -86.44645729 448.30905693 -88.1794281 448.3092804 C-91.90739891 448.30858599 -95.63531921 448.30081566 -99.36328125 448.29296875 C-101.95402499 448.2911029 -104.54476909 448.28967978 -107.13551331 448.28868103 C-113.24808564 448.28525827 -119.36063726 448.27738375 -125.47320181 448.26733154 C-132.43574428 448.25613151 -139.39828763 448.25065017 -146.36083686 448.24563611 C-160.67546339 448.23520002 -174.9900748 448.21762489 -189.3046875 448.1953125 C-190.2946875 452.1553125 -190.2946875 452.1553125 -191.3046875 456.1953125 C-194.18071205 456.30384173 -197.05259582 456.382864 -199.9296875 456.4453125 C-200.73792969 456.47882813 -201.54617187 456.51234375 -202.37890625 456.546875 C-207.85761311 456.63595966 -211.03632743 455.96377454 -215.3046875 452.1953125 C-218.16448307 448.29840408 -218.65106593 445.69901415 -218.48217773 440.90527344 C-218.44270523 439.61550598 -218.40323273 438.32573853 -218.36256409 436.99688721 C-218.30102869 435.55778943 -218.23873874 434.11872376 -218.17578125 432.6796875 C-218.11935412 431.14250256 -218.0636684 429.60529026 -218.00865173 428.0680542 C-217.23129019 407.49008772 -215.99254982 386.92817883 -214.77563477 366.37255859 C-214.4309408 360.54960813 -214.09615881 354.72613435 -213.76404667 348.90245438 C-213.50298424 344.34485072 -213.23656908 339.78757162 -212.9685955 335.23036957 C-212.84295549 333.08256456 -212.7189586 330.93466268 -212.59675789 328.78665924 C-210.35232687 289.51099798 -210.35232687 289.51099798 -199.4921875 279.2578125 C-192.62352356 273.3292306 -183.43705681 271.2400477 -174.83203125 269.171875 C-172.61002259 268.61980555 -170.3880175 268.06772176 -168.16601562 267.515625 C-164.71361152 266.66858309 -161.26043839 265.824764 -157.80688477 264.98242188 C-128.16545309 258.84801743 -128.16545309 258.84801743 -103.1171875 243.1953125 C-99.67203513 237.49299134 -98.50300288 231.46829002 -98.59375 224.84375 C-99.53811763 221.32572114 -100.95754433 220.36421876 -103.9296875 218.3203125 C-104.78820312 217.82789063 -105.64671875 217.33546875 -106.53125 216.828125 C-122.25790063 207.56933632 -131.25112006 189.8328224 -135.7421875 172.7578125 C-136.27754524 170.57382173 -136.80405484 168.38752384 -137.3046875 166.1953125 C-138.12710938 166.04835937 -138.94953125 165.90140625 -139.796875 165.75 C-151.52954802 163.3926269 -160.30249114 159.13992116 -167.3046875 149.1953125 C-172.90007287 139.81280654 -173.73805402 129.82702073 -171.7265625 119.1171875 C-169.38301092 111.66043247 -164.80008773 106.61268473 -159.3046875 101.1953125 C-157.2458562 99.1364812 -158.14332815 94.74861925 -158.12890625 91.91015625 C-158.10565459 90.16340012 -158.08153533 88.41665536 -158.05664062 86.66992188 C-158.0219396 83.92562861 -157.99243122 81.18173879 -157.97875977 78.43725586 C-157.82304421 52.27943878 -150.70908586 29.88565419 -132.3046875 10.7578125 C-100.46710178 -19.453395 -36.04551184 -28.2254686 0 0 Z " fill="#050406" transform="translate(218.3046875,43.8046875)"/>
<path d="M0 0 C0.76633544 -0.00453111 1.53267088 -0.00906223 2.32222861 -0.01373065 C4.88616055 -0.02637534 7.44988008 -0.02475424 10.01383972 -0.02310181 C11.85379306 -0.02908704 13.69374388 -0.03589257 15.53369141 -0.04345703 C20.52965434 -0.06112533 25.52554877 -0.06581278 30.52153993 -0.0670886 C33.6438501 -0.06851035 36.76614287 -0.07278042 39.88844872 -0.07808304 C50.78409811 -0.09658644 61.67969857 -0.10475331 72.57536316 -0.10317993 C82.7267905 -0.10197862 92.87800518 -0.12307811 103.02937871 -0.15466726 C111.74886315 -0.18083233 120.46827815 -0.19154712 129.18780154 -0.19026911 C134.39377898 -0.18975952 139.59956746 -0.19544099 144.80550575 -0.21662521 C149.70328499 -0.23601127 154.6006951 -0.23612948 159.49848747 -0.22159195 C161.29313827 -0.21950318 163.0878122 -0.22420883 164.8824234 -0.23631287 C167.33863199 -0.25180234 169.79357359 -0.24243373 172.24975586 -0.22705078 C173.30693328 -0.24248147 173.30693328 -0.24248147 174.38546783 -0.25822389 C180.29552272 -0.17681551 185.60385368 1.64526772 189.88516551 5.78551352 C193.46876676 9.99592731 194.44000853 12.35457522 194.45579529 17.78250122 C194.46150543 18.95456116 194.46721558 20.12662109 194.47309875 21.334198 C194.47477554 23.27292786 194.47477554 23.27292786 194.47648621 25.25082397 C194.48111369 26.62067804 194.48613826 27.99053081 194.49153137 29.36038208 C194.50466622 33.08781987 194.51110272 36.81523963 194.51554203 40.54269695 C194.5184717 42.87147706 194.52257636 45.20025222 194.5270462 47.52902985 C194.5407255 54.81512548 194.5503894 62.10120984 194.55424809 69.38731742 C194.55872666 77.79786355 194.57626326 86.20824699 194.60524869 94.61874366 C194.62687291 101.11903966 194.63695281 107.61928993 194.63828921 114.11962152 C194.63933694 118.00206009 194.64523746 121.88434582 194.66310883 125.76674652 C194.67960185 129.4209669 194.68173917 133.07491976 194.67296982 136.72916412 C194.67183366 138.70564215 194.68554252 140.68211133 194.69972229 142.65853882 C194.69136856 144.43354767 194.69136856 144.43354767 194.68284607 146.24441528 C194.68431263 147.26869503 194.68577919 148.29297478 194.68729019 149.3482933 C193.92092326 155.36309588 190.8294509 159.3981991 186.31535339 163.26742554 C182.11308532 165.43531401 178.17954787 165.55477589 173.54804993 165.53485107 C172.77284181 165.53938219 171.9976337 165.5439133 171.19893444 165.54858172 C168.60503017 165.56122761 166.01133583 165.55960524 163.41740417 165.55795288 C161.55612417 165.56393799 159.69484665 165.57074349 157.83357239 165.57830811 C152.77982735 165.59597645 147.72615004 165.60066382 142.67237711 165.60193968 C139.51456275 165.60336128 136.35676562 165.60763104 133.19895554 165.61293411 C122.18126583 165.63143665 111.16362453 165.63960438 100.1459198 165.63803101 C89.87745796 165.63682932 79.60920621 165.65793649 69.34079754 165.68951833 C60.52281586 165.7156723 51.70490284 165.72639868 42.88688266 165.72512019 C37.62113425 165.72461033 32.35557258 165.73030704 27.08986282 165.75147629 C22.13709596 165.77084396 17.18469428 165.77099314 12.23191452 165.75644302 C10.4158805 165.75435205 8.59982371 165.75907298 6.78382874 165.77116394 C4.30099886 165.78662196 1.81942731 165.77730543 -0.66337585 165.76190186 C-1.37885554 165.77218898 -2.09433523 165.78247611 -2.83149612 165.79307497 C-8.27512866 165.71864597 -11.28290598 164.23828921 -15.68464661 161.26742554 C-20.22804885 156.47843398 -21.92998165 152.07872051 -21.95207214 145.51893616 C-21.9648671 143.79685944 -21.9648671 143.79685944 -21.97792053 142.03999329 C-21.97701416 140.78948685 -21.97610779 139.53898041 -21.97517395 138.25057983 C-21.98116194 136.91308213 -21.98796811 135.57558788 -21.99552917 134.23809814 C-22.01317017 130.61192111 -22.01788378 126.98583852 -22.01916075 123.35962272 C-22.02058413 121.0916094 -22.02485729 118.82361995 -22.03015518 116.55561256 C-22.04865006 108.63604844 -22.05682659 100.71655156 -22.05525208 92.79696655 C-22.05405122 85.42661591 -22.0751437 78.05655836 -22.1067394 70.68628186 C-22.13293426 64.34893952 -22.14361801 58.01169271 -22.14234126 51.67429668 C-22.14183251 47.89351994 -22.14746691 44.1130037 -22.16869736 40.33228111 C-22.18813387 36.77396366 -22.1881679 33.21615372 -22.17366409 29.65781784 C-22.17059296 27.73900124 -22.1872151 25.82018429 -22.20454407 23.90144348 C-22.15358971 16.87683752 -21.50257432 12.22399785 -17.68464661 6.26742554 C-12.34941283 1.06899262 -7.26616865 -0.0316311 0 0 Z " fill="#ECF3FB" transform="translate(222.6846466064453,293.7325744628906)"/>
<path d="M0 0 C1.18916016 -0.020625 2.37832031 -0.04125 3.60351562 -0.0625 C5.32538086 -0.07023437 5.32538086 -0.07023437 7.08203125 -0.078125 C8.13237549 -0.0874707 9.18271973 -0.09681641 10.26489258 -0.10644531 C13.62260049 0.30306547 15.47964664 1.25494524 18.1875 3.25 C20.43020696 7.13780637 20.40182131 10.641095 20.3125 15.0625 C20.29445313 16.22394531 20.27640625 17.38539062 20.2578125 18.58203125 C20.23460937 19.46246094 20.21140625 20.34289062 20.1875 21.25 C21.14849609 21.52263672 21.14849609 21.52263672 22.12890625 21.80078125 C27.33145897 23.31270045 32.25894327 25.00000671 37.1875 27.25 C37.98414063 26.41855469 37.98414063 26.41855469 38.796875 25.5703125 C39.50328125 24.84585937 40.2096875 24.12140625 40.9375 23.375 C41.63359375 22.65570312 42.3296875 21.93640625 43.046875 21.1953125 C45.90705062 18.59610181 48.14919029 17.43878358 51.9375 16.75 C61.44312197 18.21240338 68.18194244 28.36340143 73.91015625 35.3515625 C76.03889403 38.51537461 75.80761251 40.52932496 75.1875 44.25 C73.62041002 46.48571504 71.91313368 48.39824709 70.01171875 50.35546875 C68.21814845 52.21817023 66.69770607 54.15429865 65.1875 56.25 C65.53683594 56.98605469 65.88617188 57.72210938 66.24609375 58.48046875 C66.70113281 59.45628906 67.15617188 60.43210938 67.625 61.4375 C68.07746094 62.40042969 68.52992188 63.36335938 68.99609375 64.35546875 C70.09131422 67.01631586 70.73704796 69.41784755 71.1875 72.25 C72.36505859 72.19779297 72.36505859 72.19779297 73.56640625 72.14453125 C79.89244784 71.98152895 84.72894109 71.88195302 90.1875 75.25 C94.14857297 80.67290446 93.66769442 85.70959202 93.625 92.1875 C93.64498047 93.25935547 93.66496094 94.33121094 93.68554688 95.43554688 C93.68169771 101.65194709 93.45167564 105.57896724 89.1875 110.25 C83.73127913 113.25092148 77.24390455 112.42640013 71.1875 112.25 C70.91486328 113.21099609 70.91486328 113.21099609 70.63671875 114.19140625 C69.12479955 119.39395897 67.43749329 124.32144327 65.1875 129.25 C65.82558594 129.87648437 66.46367187 130.50296875 67.12109375 131.1484375 C68.36052734 132.37433594 68.36052734 132.37433594 69.625 133.625 C70.44871094 134.43710938 71.27242187 135.24921875 72.12109375 136.0859375 C74.6560085 138.74064974 75.1135418 139.72172716 75.625 143.375 C74.74846959 151.13855505 68.6544908 155.99204128 63.25 161.1875 C62.76047852 161.67250977 62.27095703 162.15751953 61.76660156 162.65722656 C58.06338382 166.08215371 55.19320657 167.06679232 50.1875 167.25 C44.54612249 165.36954083 41.17952203 161.48154335 37.1875 157.25 C31.9075 159.23 26.6275 161.21 21.1875 163.25 C21.084375 165.27125 20.98125 167.2925 20.875 169.375 C20.12916667 178.52388889 20.12916667 178.52388889 17.1875 182.25 C11.59807106 185.25413752 6.96860151 185.71430476 0.6875 185.625 C-0.53646484 185.64240234 -0.53646484 185.64240234 -1.78515625 185.66015625 C-7.99735075 185.63024199 -12.92511924 184.80354566 -17.73828125 180.546875 C-19.28803345 177.23322302 -19.13175957 174.07440056 -19 170.5 C-18.97969727 169.45392578 -18.97969727 169.45392578 -18.95898438 168.38671875 C-18.9237945 166.67414459 -18.86999155 164.96197059 -18.8125 163.25 C-19.46476562 163.06824219 -20.11703125 162.88648438 -20.7890625 162.69921875 C-24.83594135 161.53529342 -28.46158634 160.43845363 -32.1875 158.4375 C-34.67682853 156.9448225 -34.67682853 156.9448225 -36.7734375 157.953125 C-38.97466079 159.35313675 -40.36588062 160.83997407 -42.0625 162.8125 C-44.55694276 165.36569837 -46.32967079 166.80028978 -49.875 167.4375 C-57.15611859 167.09078007 -61.68910705 161.69061216 -66.5625 156.75 C-67.13871094 156.18152344 -67.71492188 155.61304688 -68.30859375 155.02734375 C-68.86160156 154.47175781 -69.41460937 153.91617188 -69.984375 153.34375 C-70.7283252 152.59641602 -70.7283252 152.59641602 -71.48730469 151.83398438 C-73.94409639 148.89742127 -74.80093698 146.851277 -74.875 143 C-73.61616839 138.55706492 -71.6782222 136.39837077 -68.50390625 133.14453125 C-66.69632331 131.11987138 -65.58853562 129.85988171 -64.8125 127.25 C-65.75748616 121.83041049 -67.4849383 117.57037519 -70.8125 113.25 C-74.93048867 111.84429708 -77.91026119 111.62968015 -82.25390625 111.5859375 C-86.41645927 111.19298518 -87.93487298 110.21872508 -90.8125 107.25 C-92.42180912 102.42207263 -92.08025272 97.49394272 -92.125 92.4375 C-92.15400391 91.35662109 -92.18300781 90.27574219 -92.21289062 89.16210938 C-92.26287183 82.89907971 -92.14405814 78.94515609 -87.8125 74.25 C-82.62203652 71.59146992 -76.55084588 71.63800203 -70.8125 71.25 C-69.75120574 69.00749122 -68.71368767 66.75850911 -67.6875 64.5 C-67.38457031 63.86578125 -67.08164062 63.2315625 -66.76953125 62.578125 C-65.07954274 58.92247699 -65.07954274 58.92247699 -65.41015625 55.03515625 C-66.96782757 53.05227104 -68.61398054 51.24263686 -70.375 49.4375 C-73.6166804 45.78213236 -75.09360675 43.30992142 -74.8125 38.25 C-71.97187717 33.31519537 -68.34936028 29.48193701 -64.3125 25.5 C-63.74402344 24.92378906 -63.17554688 24.34757812 -62.58984375 23.75390625 C-62.03425781 23.20089844 -61.47867187 22.64789062 -60.90625 22.078125 C-60.40802734 21.5821582 -59.90980469 21.08619141 -59.39648438 20.57519531 C-56.79207015 18.3962865 -54.37797088 17.3656645 -51.0625 16.6875 C-46.07669056 17.55042856 -43.31453412 20.76289993 -39.8125 24.25 C-39.23886719 24.82105469 -38.66523438 25.39210938 -38.07421875 25.98046875 C-37.65785156 26.39941406 -37.24148438 26.81835938 -36.8125 27.25 C-36.10480469 26.96382812 -35.39710938 26.67765625 -34.66796875 26.3828125 C-31.83313914 25.25818789 -28.98675849 24.17912659 -26.125 23.125 C-25.17238281 22.77179687 -24.21976562 22.41859375 -23.23828125 22.0546875 C-20.8125 21.25 -20.8125 21.25 -18.8125 21.25 C-18.85890625 20.22519531 -18.9053125 19.20039063 -18.953125 18.14453125 C-18.99066011 16.78388344 -19.02705841 15.42320395 -19.0625 14.0625 C-19.09601563 13.38896484 -19.12953125 12.71542969 -19.1640625 12.02148438 C-19.23551429 8.35958025 -18.92784178 6.42849378 -16.921875 3.32421875 C-12.24269244 -1.27697743 -6.21480054 0.02668728 0 0 Z " fill="#528ED7" transform="translate(388.8125,-0.25)"/>
<path d="M0 0 C1.3671875 1.2578125 1.3671875 1.2578125 2.875 3.125 C6.29179835 7.21061845 9.85987853 11.11472116 13.5 15 C17.07083043 18.81887507 20.60408688 22.648207 24 26.625 C26.92777519 30.01773204 29.95272293 32.97636147 34 35 C38.94269981 35.2430836 42.49009758 35.25495121 47 33 C50.55762432 39.51289954 50.45576108 45.43447142 50.375 52.75 C50.37167664 53.41071503 50.36835327 54.07143005 50.3649292 54.75216675 C50.24208512 76.41839676 48.76450402 98.0701837 47.58886719 119.69769287 C47.13267211 128.20401221 46.73678366 136.71117019 46.390625 145.22265625 C46.34557831 146.32861649 46.30053162 147.43457672 46.25411987 148.5740509 C46.04431962 153.78160866 45.84246512 158.98939694 45.64697266 164.19750977 C45.57462222 166.03011376 45.50219844 167.86271485 45.4296875 169.6953125 C45.40062317 170.53083145 45.37155884 171.3663504 45.34161377 172.22718811 C45.11309753 177.88690247 45.11309753 177.88690247 44 179 C41.95994648 179.13471125 39.91523933 179.19918799 37.87109375 179.23706055 C36.90493558 179.25665235 36.90493558 179.25665235 35.91925907 179.27663994 C33.75873486 179.31868476 31.59817008 179.35305356 29.4375 179.38671875 C27.91181756 179.41321576 26.38613704 179.43982415 24.86045837 179.46653748 C19.90710278 179.55013096 14.95358815 179.61935547 10 179.6875 C9.16427082 179.69955223 8.32854164 179.71160446 7.46748734 179.72402191 C-14.73461497 180.04346603 -36.87389628 180.11047655 -59.0625 179.125 C-60.09914795 179.07975189 -61.1357959 179.03450378 -62.20385742 178.98788452 C-65.06487433 178.85828531 -67.92503668 178.71830773 -70.78515625 178.5703125 C-71.61692886 178.52853378 -72.44870148 178.48675507 -73.30567932 178.44371033 C-78.8790836 178.1209164 -78.8790836 178.1209164 -80 177 C-80.04180596 175.43935154 -80.00973487 173.87668538 -79.94921875 172.31665039 C-79.91127197 171.2960704 -79.8733252 170.27549042 -79.83422852 169.22398376 C-79.78580811 168.08917068 -79.7373877 166.9543576 -79.6875 165.78515625 C-79.63972412 164.59261734 -79.59194824 163.40007843 -79.54272461 162.17140198 C-78.91972323 147.21550483 -78.10007087 132.26910031 -77.27050781 117.32348633 C-77.04207475 113.2079769 -76.81791414 109.09224704 -76.59492493 104.97643948 C-76.41983651 101.753107 -76.24257579 98.52989674 -76.06466675 95.30671883 C-75.98109935 93.78829576 -75.89817381 92.2698372 -75.81594849 90.75134087 C-75.42180585 83.49362845 -74.98529425 76.2566268 -74.20751953 69.02818298 C-73.9393428 66.40716954 -73.80906109 63.79286872 -73.71875 61.16015625 C-73.68136719 60.15919922 -73.64398438 59.15824219 -73.60546875 58.12695312 C-73.55326172 56.61004883 -73.55326172 56.61004883 -73.5 55.0625 C-72.53041818 26.99849275 -72.53041818 26.99849275 -64.4375 19.1875 C-55.47186276 12.21577586 -43.46944435 10.51010647 -32.625 8 C-29.78254735 7.3387843 -26.9413397 6.67261561 -24.1015625 6 C-23.07292084 5.75685059 -23.07292084 5.75685059 -22.02349854 5.50878906 C-16.45106186 4.16559261 -10.99960465 2.52123919 -5.55224609 0.734375 C-3 0 -3 0 0 0 Z " fill="#518ED8" transform="translate(90,312)"/>
<path d="M0 0 C4.12343082 0.98547403 6.97037982 2.71267143 10.3515625 5.140625 C27.65839182 16.89344023 48.69701509 19.82123732 69.19921875 16.23828125 C79.84642936 13.62965867 89.80953054 8.83300866 98.6640625 2.390625 C101.66057819 0.33190774 102.63445838 -0.10156957 106.4140625 -0.421875 C112.08854356 1.82650429 115.04720094 6.22309104 117.87133789 11.50463867 C121.03710239 18.8857338 120.27902355 27.18409157 120.22265625 35.06640625 C120.22281151 36.84083617 120.22430499 38.61526643 120.22706604 40.38969421 C120.22844586 44.09906102 120.21596596 47.80803923 120.19311523 51.51733398 C120.16479444 56.2411202 120.16745663 60.96425856 120.18020535 65.68809223 C120.18720667 69.35071717 120.17932175 73.01319597 120.16694832 76.67580223 C120.16247253 78.41588973 120.16206263 80.15599315 120.16601372 81.89608192 C120.19097444 102.56605368 115.30234501 119.40289021 100.4375 134.30859375 C85.76481098 148.28359006 69.23447674 154.44963397 49.02978516 154.23803711 C31.58479163 153.73643974 15.76466474 146.55292513 3.7265625 133.890625 C3.07171875 133.2203125 2.416875 132.55 1.7421875 131.859375 C-2.49847955 127.29250279 -5.51944132 122.46182384 -8.2734375 116.890625 C-8.71816406 116.02308594 -9.16289063 115.15554687 -9.62109375 114.26171875 C-15.34653834 102.52706119 -15.58717945 90.79724466 -15.57421875 77.98046875 C-15.57811574 76.36104728 -15.58245244 74.74162682 -15.58720398 73.12220764 C-15.5946206 69.74607003 -15.5944073 66.3700371 -15.58911133 62.99389648 C-15.58330815 58.69150113 -15.60029026 54.38953508 -15.623456 50.08721066 C-15.63826103 46.74896285 -15.63905613 43.41081702 -15.63594627 40.07254219 C-15.63645561 38.48708811 -15.64161948 36.90162773 -15.65175819 35.31620598 C-15.71056588 24.84096828 -15.55322161 14.78698582 -9.2734375 5.890625 C-8.7784375 5.16875 -8.2834375 4.446875 -7.7734375 3.703125 C-5.30628487 0.72198224 -3.89237431 -0.13005547 0 0 Z " fill="#F7CFB3" transform="translate(106.2734375,112.109375)"/>
<path d="M0 0 C1.47828773 -0.01148719 2.95653504 -0.03188741 4.43457031 -0.06152344 C21.87599387 -0.40914785 38.64286593 2.93987042 51.82446289 15.33813477 C57.77119448 22.1092996 59.16176119 29.28522273 59.79321289 38.09594727 C60.74813586 42.16929055 62.30745384 43.70844003 65.54321289 46.29516602 C67.54647387 47.14425911 67.54647387 47.14425911 69.54321289 47.35766602 C73.51622637 48.20155798 75.74403949 49.18497335 78.54321289 52.29516602 C82.29643121 59.78892285 83.70274517 66.65786797 83.64086914 75.00219727 C83.63874672 76.09028938 83.63874672 76.09028938 83.63658142 77.20036316 C83.6310122 79.50284051 83.6184655 81.80521836 83.60571289 84.10766602 C83.60069391 85.6747219 83.5961317 87.24177931 83.59204102 88.80883789 C83.58105287 92.6376519 83.56380962 96.46639212 83.54321289 100.29516602 C80.24321289 99.96516602 76.94321289 99.63516602 73.54321289 99.29516602 C73.4484668 98.13114258 73.4484668 98.13114258 73.35180664 96.94360352 C72.16730849 86.49508296 68.93279883 75.70633252 60.79321289 68.48266602 C54.76817452 64.42735173 48.61631319 64.11254967 41.54321289 65.29516602 C38.4098594 66.9298076 35.65637627 68.69604086 32.78295898 70.7265625 C18.30676896 80.93382333 -0.12741968 83.50569666 -17.39038086 80.64282227 C-27.58509137 78.17105582 -36.95732002 73.98375148 -45.67163086 68.13891602 C-51.44388245 64.31773404 -57.7462687 64.38769378 -64.45678711 65.29516602 C-71.48334236 68.44619079 -75.01646599 75.83266127 -78.04663086 82.56079102 C-80.11846772 88.04742823 -80.98260946 93.46955493 -81.45678711 99.29516602 C-86.40678711 99.79016602 -86.40678711 99.79016602 -91.45678711 100.29516602 C-91.55713926 95.56703592 -91.62893866 90.83955188 -91.67651367 86.1105957 C-91.6963864 84.50859758 -91.7234945 82.90666957 -91.75854492 81.30493164 C-92.05281448 67.49157244 -90.24702494 55.56523844 -83.76928711 43.10766602 C-83.25664307 42.1078772 -83.25664307 42.1078772 -82.73364258 41.08789062 C-73.05487342 22.88154257 -57.10773407 10.77020868 -37.77709961 4.29125977 C-25.40618854 0.57998645 -12.83772354 0.06904275 0 0 Z " fill="#5B5C60" transform="translate(162.456787109375,38.704833984375)"/>
<path d="M0 0 C1.18916016 -0.020625 2.37832031 -0.04125 3.60351562 -0.0625 C5.32538086 -0.07023437 5.32538086 -0.07023437 7.08203125 -0.078125 C8.13237549 -0.0874707 9.18271973 -0.09681641 10.26489258 -0.10644531 C13.62260049 0.30306547 15.47964664 1.25494524 18.1875 3.25 C20.43020696 7.13780637 20.40182131 10.641095 20.3125 15.0625 C20.29445313 16.22394531 20.27640625 17.38539062 20.2578125 18.58203125 C20.23460937 19.46246094 20.21140625 20.34289062 20.1875 21.25 C21.14849609 21.52263672 21.14849609 21.52263672 22.12890625 21.80078125 C27.33145897 23.31270045 32.25894327 25.00000671 37.1875 27.25 C37.98414063 26.41855469 37.98414063 26.41855469 38.796875 25.5703125 C39.50328125 24.84585937 40.2096875 24.12140625 40.9375 23.375 C41.63359375 22.65570312 42.3296875 21.93640625 43.046875 21.1953125 C45.90705062 18.59610181 48.14919029 17.43878358 51.9375 16.75 C61.44312197 18.21240338 68.18194244 28.36340143 73.91015625 35.3515625 C76.03889403 38.51537461 75.80761251 40.52932496 75.1875 44.25 C73.62041002 46.48571504 71.91313368 48.39824709 70.01171875 50.35546875 C68.21814845 52.21817023 66.69770607 54.15429865 65.1875 56.25 C65.53683594 56.98605469 65.88617188 57.72210938 66.24609375 58.48046875 C66.70113281 59.45628906 67.15617188 60.43210938 67.625 61.4375 C68.07746094 62.40042969 68.52992188 63.36335938 68.99609375 64.35546875 C70.09131422 67.01631586 70.73704796 69.41784755 71.1875 72.25 C72.36505859 72.19779297 72.36505859 72.19779297 73.56640625 72.14453125 C79.89244784 71.98152895 84.72894109 71.88195302 90.1875 75.25 C94.14857297 80.67290446 93.66769442 85.70959202 93.625 92.1875 C93.64498047 93.25935547 93.66496094 94.33121094 93.68554688 95.43554688 C93.68169771 101.65194709 93.45167564 105.57896724 89.1875 110.25 C83.73127913 113.25092148 77.24390455 112.42640013 71.1875 112.25 C70.91486328 113.21099609 70.91486328 113.21099609 70.63671875 114.19140625 C69.12479955 119.39395897 67.43749329 124.32144327 65.1875 129.25 C65.82558594 129.87648437 66.46367187 130.50296875 67.12109375 131.1484375 C68.36052734 132.37433594 68.36052734 132.37433594 69.625 133.625 C70.44871094 134.43710938 71.27242187 135.24921875 72.12109375 136.0859375 C74.6560085 138.74064974 75.1135418 139.72172716 75.625 143.375 C74.74846959 151.13855505 68.6544908 155.99204128 63.25 161.1875 C62.76047852 161.67250977 62.27095703 162.15751953 61.76660156 162.65722656 C58.06338382 166.08215371 55.19320657 167.06679232 50.1875 167.25 C44.54612249 165.36954083 41.17952203 161.48154335 37.1875 157.25 C31.9075 159.23 26.6275 161.21 21.1875 163.25 C21.084375 165.27125 20.98125 167.2925 20.875 169.375 C20.12916667 178.52388889 20.12916667 178.52388889 17.1875 182.25 C11.59807106 185.25413752 6.96860151 185.71430476 0.6875 185.625 C-0.53646484 185.64240234 -0.53646484 185.64240234 -1.78515625 185.66015625 C-7.99735075 185.63024199 -12.92511924 184.80354566 -17.73828125 180.546875 C-19.28803345 177.23322302 -19.13175957 174.07440056 -19 170.5 C-18.97969727 169.45392578 -18.97969727 169.45392578 -18.95898438 168.38671875 C-18.9237945 166.67414459 -18.86999155 164.96197059 -18.8125 163.25 C-19.46476562 163.06824219 -20.11703125 162.88648438 -20.7890625 162.69921875 C-24.83594135 161.53529342 -28.46158634 160.43845363 -32.1875 158.4375 C-34.67682853 156.9448225 -34.67682853 156.9448225 -36.7734375 157.953125 C-38.97466079 159.35313675 -40.36588062 160.83997407 -42.0625 162.8125 C-44.55694276 165.36569837 -46.32967079 166.80028978 -49.875 167.4375 C-57.15611859 167.09078007 -61.68910705 161.69061216 -66.5625 156.75 C-67.13871094 156.18152344 -67.71492188 155.61304688 -68.30859375 155.02734375 C-68.86160156 154.47175781 -69.41460937 153.91617188 -69.984375 153.34375 C-70.7283252 152.59641602 -70.7283252 152.59641602 -71.48730469 151.83398438 C-73.94409639 148.89742127 -74.80093698 146.851277 -74.875 143 C-73.61616839 138.55706492 -71.6782222 136.39837077 -68.50390625 133.14453125 C-66.69632331 131.11987138 -65.58853562 129.85988171 -64.8125 127.25 C-65.75748616 121.83041049 -67.4849383 117.57037519 -70.8125 113.25 C-74.93048867 111.84429708 -77.91026119 111.62968015 -82.25390625 111.5859375 C-86.41645927 111.19298518 -87.93487298 110.21872508 -90.8125 107.25 C-92.42180912 102.42207263 -92.08025272 97.49394272 -92.125 92.4375 C-92.15400391 91.35662109 -92.18300781 90.27574219 -92.21289062 89.16210938 C-92.26287183 82.89907971 -92.14405814 78.94515609 -87.8125 74.25 C-82.62203652 71.59146992 -76.55084588 71.63800203 -70.8125 71.25 C-69.75120574 69.00749122 -68.71368767 66.75850911 -67.6875 64.5 C-67.38457031 63.86578125 -67.08164062 63.2315625 -66.76953125 62.578125 C-65.07954274 58.92247699 -65.07954274 58.92247699 -65.41015625 55.03515625 C-66.96782757 53.05227104 -68.61398054 51.24263686 -70.375 49.4375 C-73.6166804 45.78213236 -75.09360675 43.30992142 -74.8125 38.25 C-71.97187717 33.31519537 -68.34936028 29.48193701 -64.3125 25.5 C-63.74402344 24.92378906 -63.17554688 24.34757812 -62.58984375 23.75390625 C-62.03425781 23.20089844 -61.47867187 22.64789062 -60.90625 22.078125 C-60.40802734 21.5821582 -59.90980469 21.08619141 -59.39648438 20.57519531 C-56.79207015 18.3962865 -54.37797088 17.3656645 -51.0625 16.6875 C-46.07669056 17.55042856 -43.31453412 20.76289993 -39.8125 24.25 C-39.23886719 24.82105469 -38.66523438 25.39210938 -38.07421875 25.98046875 C-37.65785156 26.39941406 -37.24148438 26.81835938 -36.8125 27.25 C-36.10480469 26.96382812 -35.39710938 26.67765625 -34.66796875 26.3828125 C-31.83313914 25.25818789 -28.98675849 24.17912659 -26.125 23.125 C-25.17238281 22.77179687 -24.21976562 22.41859375 -23.23828125 22.0546875 C-20.8125 21.25 -20.8125 21.25 -18.8125 21.25 C-18.85890625 20.22519531 -18.9053125 19.20039063 -18.953125 18.14453125 C-18.99066011 16.78388344 -19.02705841 15.42320395 -19.0625 14.0625 C-19.09601563 13.38896484 -19.12953125 12.71542969 -19.1640625 12.02148438 C-19.23551429 8.35958025 -18.92784178 6.42849378 -16.921875 3.32421875 C-12.24269244 -1.27697743 -6.21480054 0.02668728 0 0 Z M-8.8125 10.25 C-8.998125 13.59125 -8.998125 13.59125 -9.1875 17 C-9.62499925 24.87498656 -9.62499925 24.87498656 -11.8125 28.25 C-13.75195312 29.42260742 -13.75195312 29.42260742 -16.09375 30.35546875 C-16.93550781 30.69900391 -17.77726562 31.04253906 -18.64453125 31.39648438 C-19.52496094 31.74001953 -20.40539062 32.08355469 -21.3125 32.4375 C-23.05212897 33.13920978 -24.79171441 33.84102751 -26.53125 34.54296875 C-27.30404297 34.8474292 -28.07683594 35.15188965 -28.87304688 35.46557617 C-30.84612051 36.23380088 -30.84612051 36.23380088 -32.8125 37.25 C-36.48908397 37.83825343 -38.8535997 37.90999984 -41.98046875 35.7578125 C-44.00067426 33.98415302 -45.92711515 32.16572438 -47.8125 30.25 C-48.4725 29.59 -49.1325 28.93 -49.8125 28.25 C-53.98743146 28.42281851 -56.29188587 31.26218603 -59.125 34.0625 C-60.02863281 34.93519531 -60.93226563 35.80789062 -61.86328125 36.70703125 C-64.049786 39.00718618 -64.049786 39.00718618 -63.75390625 41.44921875 C-62.36234225 44.11109014 -60.1809265 45.44548457 -57.8125 47.25 C-55.11823856 49.75845031 -54.54496409 51.80007931 -54.3125 55.375 C-54.46918552 60.16174267 -56.15060441 63.55069865 -58.453125 67.68359375 C-60.2450439 71.06661305 -61.43014148 74.58821834 -62.625 78.21875 C-64.27759794 81.04556226 -65.68017889 81.40248216 -68.8125 82.25 C-73.1420859 82.78802591 -77.45373891 82.98583266 -81.8125 83.25 C-81.8125 89.19 -81.8125 95.13 -81.8125 101.25 C-76.8625 101.25 -71.9125 101.25 -66.8125 101.25 C-66.8125 101.91 -66.8125 102.57 -66.8125 103.25 C-65.91917969 103.51683594 -65.91917969 103.51683594 -65.0078125 103.7890625 C-61.75068777 105.95661525 -60.95596783 109.08134384 -59.6875 112.625 C-57.8711125 117.62793946 -57.8711125 117.62793946 -55.67578125 122.46875 C-53.92958767 126.07175576 -53.79490492 129.39980106 -54.8125 133.25 C-57.46697966 136.95596286 -60.51290952 140.11407968 -63.8125 143.25 C-61.90171424 148.98235729 -56.38477156 152.52838361 -51.8125 156.25 C-48.58532571 154.86392514 -46.85775319 153.30430383 -44.625 150.625 C-41.98336598 147.938402 -40.30295957 146.7015703 -36.5 146.5 C-31.91141607 146.87330852 -28.36285348 148.67574314 -24.37890625 150.8828125 C-20.98526428 152.69068874 -17.45917205 153.96495588 -13.84375 155.2578125 C-11.8125 156.25 -11.8125 156.25 -9.8125 159.25 C-9.51175319 161.84606914 -9.30454838 164.33553123 -9.1875 166.9375 C-9.06375 169.350625 -8.94 171.76375 -8.8125 174.25 C-2.5425 174.25 3.7275 174.25 10.1875 174.25 C10.31819869 169.16498738 10.31819869 169.16498738 10.39526367 164.07910156 C10.5582715 160.37055662 10.88632797 158.57474201 13.43359375 155.828125 C16.03097095 154.33969892 18.16762974 153.4529078 21.0625 152.75 C24.36123194 151.86545114 27.00352082 150.90983988 29.875 149.0625 C33.84330267 146.89116458 35.73091598 146.46814315 40.1875 147.25 C44.34569753 149.70187618 47.83210318 152.80139771 51.1875 156.25 C54.77152695 154.71751951 57.21600134 152.5825399 60 149.875 C60.81082031 149.10414063 61.62164062 148.33328125 62.45703125 147.5390625 C64.38678393 145.45973721 64.38678393 145.45973721 64.203125 143.23046875 C62.88655088 140.66314922 61.17033784 138.96840865 59.125 136.9375 C56.5218223 134.05808582 55.29462076 132.69496318 54.375 128.875 C55.55485172 123.61104616 57.82261958 119.07435606 60.1875 114.25 C61.20488643 111.88084138 62.20612731 109.50604754 63.1953125 107.125 C64.37658171 104.89268022 65.0927795 103.70356915 67.1875 102.25 C69.83344138 101.87118216 72.22450773 101.64980435 74.875 101.5625 C78.4946875 101.4078125 78.4946875 101.4078125 82.1875 101.25 C82.1875 95.31 82.1875 89.37 82.1875 83.25 C80.33125 83.146875 78.475 83.04375 76.5625 82.9375 C67.51029051 82.08652849 67.51029051 82.08652849 64.1875 79.25 C62.69304954 76.33163361 61.4993795 73.39295303 60.35546875 70.3203125 C59.35752126 67.69694553 58.23965237 65.37950951 56.875 62.9375 C54.99017207 59.16005559 54.35100032 56.50854384 55.1875 52.25 C56.76255567 50.02565276 58.46484852 48.09868318 60.36328125 46.14453125 C62.15685155 44.28182977 63.67729393 42.34570135 65.1875 40.25 C63.25891188 38.24068029 61.320602 36.24272731 59.375 34.25 C58.82779297 33.67765625 58.28058594 33.1053125 57.71679688 32.515625 C56.26358846 31.03599462 54.72933626 29.63703342 53.1875 28.25 C52.1975 28.25 51.2075 28.25 50.1875 28.25 C48.84854368 29.91215268 47.51619858 31.57963607 46.1875 33.25 C43.08264679 35.80287931 40.96820799 37.112228 37 37.8125 C32.49488232 37.14781051 29.04710607 35.60369856 24.9765625 33.61328125 C21.73218427 32.02744371 18.4154705 30.67733382 15.0625 29.33984375 C12.6074755 27.91286076 11.5713057 26.74586708 10.1875 24.25 C9.49588581 19.58292412 9.40611826 14.97215442 9.1875 10.25 C3.2475 10.25 -2.6925 10.25 -8.8125 10.25 Z " fill="#030509" transform="translate(388.8125,-0.25)"/>
<path d="M0 0 C10.43820044 7.19943171 18.34215766 16.85219263 21.08984375 29.44140625 C22.31652428 46.0232407 20.20098235 58.06854047 9.40234375 71.12890625 C-0.02097862 81.17335157 -11.80935197 85.88778275 -25.40234375 86.6328125 C-38.56707438 86.11190589 -50.63326996 79.96496665 -59.75390625 70.53515625 C-68.52525041 59.6157278 -72.27529186 46.26164512 -70.91015625 32.44140625 C-69.13468807 23.73407986 -65.86101327 16.10758368 -59.91015625 9.44140625 C-58.98396484 8.20970703 -58.98396484 8.20970703 -58.0390625 6.953125 C-44.04139504 -9.56155422 -17.69071114 -10.71679608 0 0 Z " fill="#03080C" transform="translate(413.91015625,52.55859375)"/>
<path d="M0 0 C0.9528962 0.0015486 1.9057924 0.0030972 2.88756424 0.00469273 C3.89156142 0.00242718 4.89555859 0.00016162 5.92997992 -0.00217259 C9.32182304 -0.0085442 12.71362653 -0.00768121 16.10547501 -0.00685817 C18.52599251 -0.00984769 20.94650953 -0.01324973 23.36702591 -0.01703578 C29.27581153 -0.02497859 35.18458772 -0.02809134 41.09337758 -0.02864816 C45.89406335 -0.02912257 50.69474581 -0.03117352 55.49543053 -0.03434879 C69.09242472 -0.0431597 82.689411 -0.04776748 96.28640806 -0.04701831 C97.38697315 -0.04695838 97.38697315 -0.04695838 98.50977188 -0.04689723 C99.24437299 -0.04685635 99.97897411 -0.04681547 100.73583586 -0.04677335 C112.64577646 -0.04636675 124.55568547 -0.05593865 136.46561693 -0.0700356 C148.68109456 -0.08438065 160.89655676 -0.09130682 173.11204302 -0.09044182 C179.97556383 -0.0901092 186.83905153 -0.09288453 193.70256478 -0.10361987 C200.154719 -0.11364675 206.60682121 -0.11340871 213.05897957 -0.10610324 C215.43343828 -0.10505222 217.80790127 -0.10745063 220.1823526 -0.1134637 C223.41124104 -0.1211139 226.63988277 -0.11658544 229.86876541 -0.10883266 C230.81943089 -0.11397622 231.77009637 -0.11911978 232.74956989 -0.12441921 C234.03999096 -0.11752102 234.03999096 -0.11752102 235.35648113 -0.11048347 C236.10246923 -0.11070084 236.84845733 -0.1109182 237.61705112 -0.11114216 C239.44165665 0.1384055 239.44165665 0.1384055 241.44165665 2.1384055 C242.18774745 6.80147303 241.53030026 9.54360729 238.87915665 13.3259055 C235.76108292 17.47488707 231.50141221 20.60011043 226.33963531 21.50820881 C223.94287209 21.64905725 221.57509172 21.66695865 219.17430741 21.63961095 C217.80573777 21.64791254 217.80573777 21.64791254 216.40952027 21.65638185 C213.36323031 21.66995618 210.31776422 21.65503645 207.27149063 21.64011449 C205.0831733 21.64389879 202.89485836 21.64939976 200.70654923 21.65648717 C194.77069781 21.67044348 188.83513619 21.6592709 182.89930087 21.64277595 C176.68677837 21.62892212 170.47427264 21.63538585 164.26174027 21.63890904 C153.83021198 21.64161069 143.39879148 21.62822649 132.96729141 21.60495824 C122.24003443 21.58103306 111.51292966 21.57395685 100.78565079 21.58445042 C87.84871451 21.5970829 74.911871 21.59456435 61.97493798 21.57879132 C57.03686557 21.573032 52.09884411 21.57311379 47.16077095 21.57785672 C41.34702067 21.58262752 35.53348116 21.57252029 29.71977097 21.55090207 C27.58565408 21.54533574 25.45151693 21.54486748 23.31739861 21.54985493 C20.40537229 21.55580713 17.4939905 21.54330358 14.58202225 21.52608556 C13.73659267 21.5320956 12.89116308 21.53810565 12.02011442 21.54429781 C6.24679541 21.4821805 1.93426474 20.48469697 -2.4216246 16.38449925 C-2.89986679 15.78766331 -3.37810898 15.19082738 -3.87084335 14.5759055 C-4.36197616 13.97649144 -4.85310898 13.37707738 -5.3591246 12.75949925 C-8.20010358 8.91908792 -7.70648974 5.80501688 -7.55834335 1.1384055 C-5.60197273 -0.81796512 -2.60498649 0.00979352 0 0 Z " fill="#C4D2E0" transform="translate(192.5583433508873,468.8615944981575)"/>
<path d="M0 0 C5.61 0 11.22 0 17 0 C18.68258629 28.43624934 20.23979743 56.87646356 21.58730698 85.33047485 C21.68684923 87.42381457 21.78766591 89.51708938 21.88882446 91.61035156 C22.07996574 95.57206545 22.26501289 99.53405102 22.44921875 103.49609375 C22.50532318 104.655681 22.56142761 105.81526825 22.61923218 107.00999451 C23.34724519 123.03129109 23.34724519 123.03129109 23 131 C21.2940035 132.7059965 19.08649836 132.13013541 16.7578125 132.1328125 C15.69175781 132.13410156 14.62570313 132.13539063 13.52734375 132.13671875 C11.84318359 132.13091797 11.84318359 132.13091797 10.125 132.125 C9.00996094 132.12886719 7.89492187 132.13273438 6.74609375 132.13671875 C5.14314453 132.13478516 5.14314453 132.13478516 3.5078125 132.1328125 C2.03272217 132.13112061 2.03272217 132.13112061 0.52783203 132.12939453 C-2 132 -2 132 -5 131 C-5.3036693 115.26759451 -4.76387758 99.65197823 -3.92242432 83.94833374 C-3.19310022 70.2574492 -2.7584237 56.58244307 -2.5 42.875 C-2.22635287 28.50557612 -1.61776211 14.29284973 0 0 Z " fill="#F7657D" transform="translate(150,359)"/>
<path d="M0 0 C1.22169388 -0.0127597 2.44338776 -0.02551941 3.70210266 -0.03866577 C5.03732139 -0.04172379 6.37254224 -0.04395135 7.70776367 -0.04541016 C9.07915893 -0.05183881 10.45055281 -0.05856722 11.82194519 -0.06558228 C14.69773536 -0.07755822 17.5734054 -0.08126292 20.44921875 -0.08007812 C24.12462961 -0.07987521 27.79926478 -0.10714558 31.47449207 -0.14162254 C34.30819699 -0.16392414 37.14171643 -0.16791465 39.97550011 -0.16685867 C41.98623253 -0.17035105 43.99690705 -0.19199893 46.00752258 -0.21395874 C57.35019189 -0.15726836 57.35019189 -0.15726836 62.06323242 4.29052734 C66.17885536 9.06464995 66.690518 12.7550696 66.56323242 18.79052734 C66.58643555 19.89074219 66.58643555 19.89074219 66.61010742 21.01318359 C66.57291227 26.21120574 65.56249442 29.24592581 62.06323242 33.29052734 C55.73285615 39.22165112 50.10569074 38.99602088 41.68432617 38.88427734 C40.3988942 38.88431763 39.11346222 38.88435791 37.78907776 38.88439941 C35.07812031 38.88275256 32.36799622 38.86417271 29.65722656 38.83251953 C26.19494021 38.79280273 22.73374083 38.78848258 19.2712698 38.79598236 C15.95049118 38.79980154 12.63005121 38.77896042 9.30932617 38.75927734 C8.07170029 38.75907593 6.8340744 38.75887451 5.5589447 38.75866699 C-1.41510307 38.66285256 -6.1523622 38.17165901 -11.83520508 33.84521484 C-16.88771284 28.0976531 -17.02483306 21.65077165 -16.60083008 14.31787109 C-16.04917009 9.62659778 -14.2283495 6.82932077 -10.76098633 3.63818359 C-6.84017186 0.74165042 -4.84997672 0.0343415 0 0 Z " fill="#0C0D0E" transform="translate(283.936767578125,362.70947265625)"/>
<path d="M0 0 C1.258125 0.28875 2.51625 0.5775 3.8125 0.875 C5.54147886 1.25086497 7.27065686 1.62581464 9 2 C9.81984375 2.19078125 10.6396875 2.3815625 11.484375 2.578125 C23.80991986 5.19263452 35.5353064 4.52994947 47.6953125 1.65625 C50.89478446 1.02089387 53.74887803 0.88141804 57 1 C57.19916016 2.39025391 57.19916016 2.39025391 57.40234375 3.80859375 C57.57894531 5.00613281 57.75554687 6.20367187 57.9375 7.4375 C58.11152344 8.63246094 58.28554687 9.82742188 58.46484375 11.05859375 C58.68985213 13.87955676 58.68985213 13.87955676 60 15 C60.47265625 17.10546875 60.47265625 17.10546875 60 20 C58.07765983 22.69283594 55.76957598 24.97366949 53.4375 27.3125 C52.14758069 28.64630733 50.85850902 29.98093496 49.5703125 31.31640625 C48.9505957 31.9520752 48.33087891 32.58774414 47.69238281 33.24267578 C45.13287515 35.90039883 42.72671915 38.67898865 40.33203125 41.484375 C39.67267578 42.23460937 39.67267578 42.23460937 39 43 C38.40832031 43.83724609 38.40832031 43.83724609 37.8046875 44.69140625 C34.90912639 46.79100143 31.74110245 46.31235107 28.3125 46.1875 C27.61060547 46.17396484 26.90871094 46.16042969 26.18554688 46.14648438 C24.45670171 46.11120182 22.72825235 46.05739583 21 46 C20.7525 45.38125 20.505 44.7625 20.25 44.125 C18.75947239 41.59110305 17.61514756 41.21346809 15 40 C13.5 38.51171875 13.5 38.51171875 12 36.6875 C8.62367639 32.690583 5.11946884 28.83544481 1.5625 25 C0.74555664 24.117677 0.74555664 24.117677 -0.08789062 23.2175293 C-1.39102486 21.81084985 -2.69538168 20.40530315 -4 19 C-3.69255859 18.19949219 -3.69255859 18.19949219 -3.37890625 17.3828125 C-1.282843 11.58604428 -0.37189499 6.14267934 0 0 Z " fill="#F5CDB2" transform="translate(130,271)"/>
<path d="M0 0 C3.63 0.66 7.26 1.32 11 2 C11.00364563 3.23282211 11.00729126 4.46564423 11.01104736 5.73582458 C11.04804404 17.37364888 11.10586811 29.01120971 11.18390274 40.64883327 C11.22335347 46.63137827 11.25555394 52.61377659 11.27099609 58.59643555 C11.28617821 64.37378611 11.32065216 70.15073339 11.36830902 75.92790413 C11.38310664 78.12817943 11.39104008 80.32851231 11.39188385 82.5288372 C11.39426006 85.61918636 11.42139348 88.70842693 11.45410156 91.79858398 C11.4490712 92.70130035 11.44404083 93.60401672 11.43885803 94.53408813 C11.54126422 100.81844776 13.07457645 105.46060642 16 111 C16.495 111.99 16.495 111.99 17 113 C9.08 113.495 9.08 113.495 1 114 C0.91435791 111.78152344 0.82871582 109.56304687 0.74047852 107.27734375 C0.45483751 99.88532352 0.16709307 92.49338619 -0.12164211 85.10148621 C-0.29635956 80.62693998 -0.47040399 76.15236983 -0.64282227 71.67773438 C-0.80974586 67.34637989 -0.97855226 63.01510224 -1.14857674 58.68386841 C-1.21260477 57.04479492 -1.27599383 55.40569632 -1.33868217 53.76657104 C-1.70231404 44.27119731 -2.162147 34.79152623 -2.78791809 25.30958557 C-3.97466975 6.79006082 -3.97466975 6.79006082 0 0 Z " fill="#528FD7" transform="translate(180,346)"/>
<path d="M0 0 C2.875 0.6875 2.875 0.6875 3.875 1.6875 C3.97094225 3.26904848 3.9968796 4.85489125 3.99525452 6.43934631 C3.99662918 7.46724777 3.99800385 8.49514923 3.99942017 9.55419922 C3.99582489 10.69139404 3.99222961 11.82858887 3.98852539 13.00024414 C3.98867142 14.19032578 3.98881744 15.38040741 3.9889679 16.60655212 C3.98838894 19.87913274 3.98335981 23.15167107 3.97639394 26.42424321 C3.97015967 29.84088665 3.96955654 33.25753083 3.96836853 36.67417908 C3.96525543 43.14819267 3.95704233 49.62218946 3.94701904 56.09619564 C3.93585725 63.4648792 3.93034729 70.83356355 3.92532361 78.20225346 C3.91485969 93.36401169 3.89726066 108.52575417 3.875 123.6875 C-3.875 124.8125 -3.875 124.8125 -6.125 123.6875 C-6.19501433 107.81524152 -6.2479509 91.94302458 -6.28043652 76.0706501 C-6.29591963 68.70118174 -6.31703655 61.33180921 -6.35131836 53.96240234 C-6.38117673 47.54083344 -6.40056449 41.11933391 -6.40726548 34.69769752 C-6.41118385 31.29599857 -6.42042205 27.89449815 -6.44219017 24.4928627 C-6.46383508 20.6997098 -6.46697231 16.90697383 -6.46557617 13.11376953 C-6.476362 11.98016998 -6.48714783 10.84657043 -6.4982605 9.67861938 C-6.49413651 8.64934326 -6.49001251 7.62006714 -6.48576355 6.55960083 C-6.48852893 5.66177446 -6.49129431 4.7639481 -6.49414349 3.83891487 C-6.37232614 3.12894796 -6.25050879 2.41898106 -6.125 1.6875 C-3.125 -0.3125 -3.125 -0.3125 0 0 Z " fill="#040810" transform="translate(64.125,367.3125)"/>
<path d="M0 0 C1.70175133 -0.00945648 1.70175133 -0.00945648 3.43788147 -0.019104 C4.66292892 -0.01505554 5.88797638 -0.01100708 7.15014648 -0.00683594 C8.40633286 -0.00874939 9.66251923 -0.01066284 10.95677185 -0.01263428 C13.61406192 -0.01399627 16.27098495 -0.01130074 18.92822266 -0.00195312 C22.33701797 0.00945298 25.74549874 0.0028723 29.15428257 -0.00909805 C32.40291526 -0.01805344 35.6515097 -0.01178811 38.90014648 -0.00683594 C40.12721817 -0.0108844 41.35428986 -0.01493286 42.61854553 -0.019104 C44.31556862 -0.00964752 44.31556862 -0.00964752 46.046875 0 C47.04598404 0.00159119 48.04509308 0.00318237 49.07447815 0.00482178 C51.45874023 0.25878906 51.45874023 0.25878906 53.45874023 2.25878906 C53.75952148 5.19238281 53.75952148 5.19238281 53.77124023 8.69628906 C53.78799805 9.85 53.80475586 11.00371094 53.82202148 12.19238281 C53.45874023 15.25878906 53.45874023 15.25878906 52.27563477 16.92617798 C49.78340506 18.75411729 48.10104938 18.63947462 45.02514648 18.64697266 C43.91389404 18.65642914 42.8026416 18.66588562 41.65771484 18.67562866 C40.45767822 18.66955597 39.2576416 18.66348328 38.02124023 18.65722656 C36.78962158 18.66009674 35.55800293 18.66296692 34.2890625 18.66592407 C31.01526066 18.66849064 27.74188487 18.65640516 24.46813965 18.63964844 C22.46063639 18.63379459 20.45352654 18.63962701 18.44604492 18.64990234 C14.59592328 18.66839886 10.7463859 18.66619899 6.89624023 18.65722656 C5.0961853 18.6663356 5.0961853 18.6663356 3.25976562 18.67562866 C1.59288696 18.66144394 1.59288696 18.66144394 -0.10766602 18.64697266 C-1.08678955 18.64458588 -2.06591309 18.6421991 -3.07470703 18.63973999 C-5.54125977 18.25878906 -5.54125977 18.25878906 -7.35595703 16.92617798 C-9.23210442 14.28696415 -8.93758692 11.87759 -8.91625977 8.69628906 C-8.92399414 7.54 -8.93172852 6.38371094 -8.93969727 5.19238281 C-8.80821289 4.22429687 -8.67672852 3.25621094 -8.54125977 2.25878906 C-5.15004735 -0.00201922 -3.97552881 0.00632641 0 0 Z " fill="#C5D4E1" transform="translate(286.541259765625,372.7412109375)"/>
<path d="M0 0 C10.86117878 1.20679764 14.77829708 3.10180344 21.51953125 11 C26.29199613 17.44723487 26.09615087 25.26701328 25 33 C22.39693564 40.75970517 17.13838429 45.33468958 10 49 C6.21446208 50.57135536 4.13125758 51 0 51 C0 34.17 0 17.34 0 0 Z " fill="#F0CAB0" transform="translate(236,148)"/>
<path d="M0 0 C0 16.83 0 33.66 0 51 C-8.74399359 49.9070008 -14.42433414 48.1209748 -20.4375 41.625 C-25.54136418 35.02249426 -25.98660524 27.06755326 -25 19 C-22.57589912 11.28400034 -18.17668262 5.96616019 -11.20703125 1.97265625 C-7.08688161 -0.00101367 -4.78712847 0 0 0 Z " fill="#F2CCB1" transform="translate(81,148)"/>
<path d="M0 0 C7.9847795 3.34075832 14.0351778 11.84364584 19.5234375 18.3203125 C21.09305254 20.17167191 21.09305254 20.17167191 23.5 22.25 C25 24 25 24 24.91796875 25.75 C23.57618683 29.03879313 21.27844104 31.27431215 18.8125 33.75 C18.34263672 34.25660156 17.87277344 34.76320313 17.38867188 35.28515625 C15.02802464 37.67478824 13.29407813 38.93089548 10.0078125 39.703125 C5.78195984 38.71526334 3.75026977 36.19922547 1.0625 33 C0.53962402 32.40493652 0.01674805 31.80987305 -0.52197266 31.19677734 C-2.02923201 29.47653061 -3.51514091 27.73957074 -5 26 C-6.29056274 24.54068965 -7.58199676 23.08214842 -8.875 21.625 C-9.91935434 20.41898885 -10.96110759 19.2107194 -12 18 C-12.86818359 16.99066406 -12.86818359 16.99066406 -13.75390625 15.9609375 C-15.17180487 14.30946393 -16.58629719 12.65506671 -18 11 C-14.45004726 7.9693922 -10.95479562 5.82686638 -6.75 3.8125 C-3.1350309 2.2664937 -3.1350309 2.2664937 0 0 Z " fill="#6CABEA" transform="translate(118,298)"/>
<path d="M0 0 C2.375 0.875 2.375 0.875 4.375 2.875 C4.5748697 5.63678438 4.65478901 8.29610083 4.640625 11.05859375 C4.64349518 12.27555687 4.64349518 12.27555687 4.64642334 13.5171051 C4.64778542 15.2344697 4.64408738 16.95184459 4.63574219 18.66918945 C4.62505659 21.29857548 4.63562935 23.92727612 4.6484375 26.55664062 C4.64711564 28.22395984 4.64455269 29.89127863 4.640625 31.55859375 C4.64467346 32.34616562 4.64872192 33.13373749 4.65289307 33.94517517 C4.61994682 37.78149167 4.5532826 39.60757611 2.375 42.875 C0.47753906 43.2492218 0.47753906 43.2492218 -1.859375 43.24731445 C-2.73368164 43.25354324 -3.60798828 43.25977203 -4.50878906 43.26618958 C-5.45463867 43.25697983 -6.40048828 43.24777008 -7.375 43.23828125 C-8.34405273 43.23877975 -9.31310547 43.23927826 -10.31152344 43.23979187 C-12.36265104 43.23744884 -14.41378138 43.22770694 -16.46484375 43.21118164 C-19.6122395 43.18759562 -22.75878841 43.19061814 -25.90625 43.19726562 C-27.89583841 43.19168893 -29.88542323 43.18457911 -31.875 43.17578125 C-32.82084961 43.17669266 -33.76669922 43.17760406 -34.74121094 43.17854309 C-35.61551758 43.16901108 -36.48982422 43.15947906 -37.390625 43.1496582 C-38.16180664 43.14505081 -38.93298828 43.14044342 -39.72753906 43.13569641 C-41.625 42.875 -41.625 42.875 -43.625 40.875 C-43.9375 37.875 -43.9375 37.875 -43.625 34.875 C-39.93341682 32.41394455 -37.15876446 32.61924207 -32.89453125 32.6796875 C-32.14411057 32.6825174 -31.39368988 32.68534729 -30.62052917 32.68826294 C-28.22602325 32.69944938 -25.83189269 32.72455072 -23.4375 32.75 C-21.81315645 32.76003181 -20.18880703 32.76915731 -18.56445312 32.77734375 C-14.584491 32.79938363 -10.60480912 32.8339026 -6.625 32.875 C-6.64594727 32.01745117 -6.66689453 31.15990234 -6.68847656 30.27636719 C-6.75676527 27.08581528 -6.80685513 23.89563654 -6.84472656 20.70458984 C-6.86480642 19.3252332 -6.89207666 17.94596131 -6.92675781 16.56689453 C-6.97542817 14.58143021 -6.99586418 12.59533746 -7.015625 10.609375 C-7.03657227 9.41538086 -7.05751953 8.22138672 -7.07910156 6.99121094 C-6.625 3.875 -6.625 3.875 -4.76464844 1.44628906 C-2.625 -0.125 -2.625 -0.125 0 0 Z " fill="#040404" transform="translate(357.625,199.125)"/>
<path d="M0 0 C2.4375 0.75 2.4375 0.75 4.4375 2.75 C4.66455078 5.73095703 4.66455078 5.73095703 4.6328125 9.5078125 C4.6299826 10.17086395 4.62715271 10.83391541 4.62423706 11.51705933 C4.61303435 13.63655583 4.58793051 15.75563104 4.5625 17.875 C4.55247028 19.31119182 4.54334441 20.74739025 4.53515625 22.18359375 C4.513095 25.70586628 4.47856494 29.22789203 4.4375 32.75 C5.48204346 32.72905273 6.52658691 32.70810547 7.6027832 32.68652344 C11.47715554 32.61413851 15.3514681 32.56820638 19.22631836 32.53027344 C20.90350392 32.51015435 22.58061931 32.48285549 24.25756836 32.44824219 C26.667982 32.39973431 29.07746872 32.37703536 31.48828125 32.359375 C32.23837967 32.33872986 32.98847809 32.31808472 33.76130676 32.29681396 C38.9539189 32.2945744 38.9539189 32.2945744 41.44604492 34.64160156 C42.4375 36.75 42.4375 36.75 42.25 38.875 C41.4375 40.75 41.4375 40.75 39.4375 42.75 C37.57800293 43.00396729 37.57800293 43.00396729 35.29492188 43.00878906 C34.44063599 43.01509338 33.5863501 43.02139771 32.70617676 43.02789307 C31.78220093 43.0238446 30.8582251 43.01979614 29.90625 43.015625 C28.95939331 43.01753845 28.01253662 43.0194519 27.0369873 43.02142334 C25.03295628 43.02278573 23.02891646 43.01908556 21.02490234 43.01074219 C17.94999447 43.00004347 14.87567086 43.01063572 11.80078125 43.0234375 C9.85676954 43.02211591 7.91275819 43.01955354 5.96875 43.015625 C4.58278625 43.02169769 4.58278625 43.02169769 3.16882324 43.02789307 C2.31453735 43.02158875 1.46025146 43.01528442 0.58007812 43.00878906 C-0.17333862 43.00719788 -0.92675537 43.00560669 -1.70300293 43.00396729 C-3.5625 42.75 -3.5625 42.75 -5.5625 40.75 C-5.77473494 37.83266569 -5.86646164 35.01267581 -5.86328125 32.09375 C-5.86756638 31.23567749 -5.8718515 30.37760498 -5.87626648 29.49353027 C-5.88201408 27.67782474 -5.88250688 25.86209618 -5.87817383 24.04638672 C-5.87501248 21.26099601 -5.89847178 18.47666563 -5.92382812 15.69140625 C-5.92610086 13.92968885 -5.92680474 12.16796857 -5.92578125 10.40625 C-5.934991 9.56976929 -5.94420074 8.73328857 -5.95368958 7.87145996 C-5.93481445 5.52539062 -5.93481445 5.52539062 -5.5625 1.75 C-2.5625 -0.25 -2.5625 -0.25 0 0 Z " fill="#010101" transform="translate(422.5625,199.25)"/>
<path d="M0 0 C3.05661905 2.73486967 3.93974578 4.20163153 4.25 8.3125 C4.1675 9.199375 4.085 10.08625 4 11 C5.093125 10.938125 6.18625 10.87625 7.3125 10.8125 C11 11 11 11 12.9375 12.0625 C14.6140629 15.11976176 14.36528977 17.5906288 14 21 C12.9375 22.9375 12.9375 22.9375 11 24 C7.3125 24.1875 7.3125 24.1875 4 24 C3.9175 25.258125 3.835 26.51625 3.75 27.8125 C3.37730266 30.6919699 3.19058025 31.76706858 1.3125 34.0625 C-1.89902894 35.36447119 -3.72187627 35.0462097 -7 34 C-9.67774326 31.59003107 -9.97847801 30.37304782 -10.1875 26.75 C-10.125625 25.8425 -10.06375 24.935 -10 24 C-11.093125 24.061875 -12.18625 24.12375 -13.3125 24.1875 C-17 24 -17 24 -18.9375 22.9375 C-20.63335287 19.84506242 -20.43060657 17.44485259 -20 14 C-18.375 12.0625 -18.375 12.0625 -16 11 C-12.75 10.8125 -12.75 10.8125 -10 11 C-9.8453125 9.1128125 -9.8453125 9.1128125 -9.6875 7.1875 C-9.35934935 4.68202542 -9.11211423 3.18882396 -7.8125 1 C-4.99532333 -0.55430437 -3.15523009 -0.51513961 0 0 Z " fill="#71D5F8" transform="translate(486,282)"/>
<path d="M0 0 C3.71229744 0.08070212 5.4620845 0.49282253 8.1875 3.0625 C13.48595541 11.64965187 15 21.03119866 15 31 C6.42 31 -2.16 31 -11 31 C-10.00588929 19.07067147 -8.70746715 8.70746715 0 0 Z " fill="#71D2F3" transform="translate(387,56)"/>
<path d="M0 0 C8.58 0 17.16 0 26 0 C25.62514678 11.37054777 23.95628859 22.30759809 16 31 C13.5625 31.6875 13.5625 31.6875 11 31 C3.51050376 24.05851568 1.19306323 13.82707346 0 4 C0 2.68 0 1.36 0 0 Z " fill="#70D4F6" transform="translate(376,97)"/>
<path d="M0 0 C2.375 0.875 2.375 0.875 4.375 3.875 C4.63569641 6.0378418 4.63569641 6.0378418 4.6496582 8.57421875 C4.65919022 9.52530518 4.66872223 10.4763916 4.67854309 11.45629883 C4.67763168 12.48134521 4.67672028 13.5063916 4.67578125 14.5625 C4.68006638 15.61655029 4.6843515 16.67060059 4.68876648 17.7565918 C4.6945112 19.98583253 4.695009 22.21509202 4.69067383 24.44433594 C4.68751235 27.86165185 4.71097718 31.27810358 4.73632812 34.6953125 C4.73860088 36.8593739 4.73930473 39.02343764 4.73828125 41.1875 C4.747491 42.21254639 4.75670074 43.23759277 4.76618958 44.29370117 C4.75996078 45.2447876 4.75373199 46.19587402 4.74731445 47.17578125 C4.74794388 48.01278564 4.7485733 48.84979004 4.7492218 49.7121582 C4.28895925 52.37227869 3.46421717 53.22110375 1.375 54.875 C-0.5625 55.8125 -0.5625 55.8125 -2.625 55.875 C-4.72070312 54.56665039 -4.72070312 54.56665039 -6.625 51.875 C-7.24150323 48.21266533 -7.18505818 44.57758455 -7.15625 40.87109375 C-7.1600769 39.79626236 -7.16390381 38.72143097 -7.16784668 37.61402893 C-7.17056694 35.34366926 -7.16319784 33.0732783 -7.14648438 30.80297852 C-7.12505676 27.32172077 -7.14629426 23.84252206 -7.171875 20.36132812 C-7.16923216 18.15624543 -7.16410808 15.95116402 -7.15625 13.74609375 C-7.16434692 12.70231064 -7.17244385 11.65852753 -7.18078613 10.58311462 C-7.16817749 9.61523514 -7.15556885 8.64735565 -7.14257812 7.65014648 C-7.13939575 6.7983934 -7.13621338 5.94664032 -7.13293457 5.06907654 C-6.625 2.875 -6.625 2.875 -4.75671387 1.06874084 C-2.625 -0.125 -2.625 -0.125 0 0 Z " fill="#060606" transform="translate(390.625,199.125)"/>
<path d="M0 0 C1.82501647 1.20303776 3.54260935 2.48419773 5.25390625 3.84375 C10.3048687 7.18845891 17.21604586 6.54803151 23 6 C26.74195032 4.79829258 29.81976849 3.227678 32.5546875 0.3828125 C34 -1 34 -1 36.5625 -1.3125 C39 -1 39 -1 41 1 C41.31545295 4.15452951 41.38464941 5.24139344 40 8 C30.81278674 16.3709019 22.97083778 17.70262655 11.01123047 17.17480469 C4.00118842 16.56553179 -1.54139943 12.46387037 -6.59375 7.8125 C-8 6 -8 6 -8.125 2.625 C-6.25219896 -1.7448691 -4.18174969 -1.30098879 0 0 Z " fill="#100A09" transform="translate(143,214)"/>
<path d="M0 0 C9.08928955 -0.11439609 9.08928955 -0.11439609 11.8984375 2.5 C13.1640625 4.64453125 13.1640625 4.64453125 14.109375 6.82421875 C14.99919028 9.11239306 14.99919028 9.11239306 18.0390625 10.76953125 C17.34366784 15.359136 15.9886895 18.22040158 14.0390625 22.76953125 C7.1090625 22.76953125 0.1790625 22.76953125 -6.9609375 22.76953125 C-10.9609375 13.43619792 -10.9609375 13.43619792 -10.9609375 10.76953125 C-8.7109375 8.26953125 -8.7109375 8.26953125 -5.9609375 5.76953125 C-5.54070312 4.90972656 -5.12046875 4.04992187 -4.6875 3.1640625 C-2.9609375 0.76953125 -2.9609375 0.76953125 0 0 Z " fill="#F58FA6" transform="translate(154.9609375,326.23046875)"/>
<path d="M0 0 C1.99704988 1.99704988 2.68808813 3.33909237 3.8125 5.875 C6.95197092 12.25782139 11.62508747 14.5000343 18 17 C18 17.66 18 18.32 18 19 C17.33613281 19.27972656 16.67226563 19.55945313 15.98828125 19.84765625 C8.54958096 23.22493478 4.99389187 26.5374801 1.6875 33.9375 C1.460625 34.618125 1.23375 35.29875 1 36 C0.34 36 -0.32 36 -1 36 C-1.30292969 35.32453125 -1.60585938 34.6490625 -1.91796875 33.953125 C-5.79950858 25.68843095 -9.59455771 22.29625188 -18 19 C-18 18.34 -18 17.68 -18 17 C-17.32453125 16.69707031 -16.6490625 16.39414063 -15.953125 16.08203125 C-7.67978099 12.19642893 -4.3140719 7.85777381 0 0 Z " fill="#F4C84E" transform="translate(18,94)"/>
<path d="M0 0 C0.33 0 0.66 0 1 0 C0.67 10.89 0.34 21.78 0 33 C-1.485 33.495 -1.485 33.495 -3 34 C-5.95235284 32.01117654 -8.41707969 29.44248969 -11 27 C-12.010625 26.154375 -13.02125 25.30875 -14.0625 24.4375 C-16 22 -16 22 -15.8828125 19.125 C-14.847857 15.4614407 -13.60106129 14.10817153 -10.8125 11.5625 C-7.86841082 8.79214495 -5.08635587 6.04616131 -2.5 2.9375 C-1.675 1.968125 -0.85 0.99875 0 0 Z " fill="#6DABEB" transform="translate(191,304)"/>
<path d="M0 0 C4.00079356 2.4449294 5.65936873 3.95918222 7.125 8.4375 C6.97177911 12.80429526 5.76736304 14.67916436 3 18 C-0.50317094 19.75158547 -4.18694726 19.6837198 -8 19 C-11.63715985 15.95666217 -12.82298645 14.12108584 -13.5625 9.4375 C-12.91429589 5.47625263 -11.81200626 3.81200626 -9 1 C-5.85088521 -0.57455739 -3.47991184 -0.34799118 0 0 Z " fill="#0E0907" transform="translate(130,167)"/>
<path d="M0 0 C3.28870485 2.72721866 3.89723897 4.28067282 4.5 8.5 C3.9231981 12.53761333 2.85349783 14.14650217 0 17 C-3.24898288 18.62449144 -6.50033527 18.68922651 -10 18 C-13.10136768 15.41552694 -14.52536871 13.85867064 -15.51171875 9.99609375 C-15.85898673 5.92919984 -15.08200356 4.10303011 -12.5625 0.9375 C-8.54178827 -1.87986332 -4.51318575 -1.54150557 0 0 Z " fill="#0A0605" transform="translate(198,168)"/>
<path d="M0 0 C4.29 0 8.58 0 13 0 C12.15091235 10.18905186 7.16402416 16.90593702 0 24 C-1.31226792 25.02748756 -2.63948189 26.03731196 -4 27 C-4.66 26.67 -5.32 26.34 -6 26 C-5.53980469 24.8759375 -5.07960938 23.751875 -4.60546875 22.59375 C-2.87027331 17.96656215 -2.03871604 13.37318739 -1.3125 8.5 C-1.18294922 7.67757812 -1.05339844 6.85515625 -0.91992188 6.0078125 C-0.60574306 4.00637712 -0.30178543 2.00334158 0 0 Z " fill="#70D4F7" transform="translate(412,97)"/>
<path d="M0 0 C6.44332664 1.7572709 10.43518633 6.40570364 13.78125 11.953125 C16.45256525 17.06894572 18 20.11765042 18 26 C13.71 26 9.42 26 5 26 C4.80664062 24.7934375 4.61328125 23.586875 4.4140625 22.34375 C4.15121866 20.72913784 3.88818783 19.11455612 3.625 17.5 C3.49867188 16.70851563 3.37234375 15.91703125 3.2421875 15.1015625 C2.40359674 9.98615885 1.32215015 5.01267362 0 0 Z " fill="#70D4F7" transform="translate(407,61)"/>
<path d="M0 0 C0.33 0.66 0.66 1.32 1 2 C0.28468524 3.9130999 -0.43605524 5.82442495 -1.18994141 7.72265625 C-2.49766754 11.39910874 -3.07798805 15.15641097 -3.6875 19 C-3.81705078 19.77472656 -3.94660156 20.54945312 -4.08007812 21.34765625 C-4.39390009 23.23058801 -4.69799355 25.11513705 -5 27 C-9.29 27 -13.58 27 -18 27 C-17.44993033 18.38224176 -13.45184317 11.6837666 -7 6 C-4.68388634 3.97884027 -2.35538847 1.97526814 0 0 Z " fill="#78D1ED" transform="translate(371,60)"/>
<path d="M0 0 C4.29 0 8.58 0 13 0 C13.18175781 1.11117187 13.36351562 2.22234375 13.55078125 3.3671875 C14.89969835 11.41635947 16.31979954 19.26353483 19 27 C10.53503333 23.0266483 5.84682697 16.24214601 1.7265625 8.01953125 C1 6 1 6 0 0 Z " fill="#6FCAE9" transform="translate(353,97)"/>
<path d="M0 0 C0.391875 0.556875 0.78375 1.11375 1.1875 1.6875 C4.61430741 6.05963359 7.6097661 9.30592649 13 11 C11 14 11 14 8.125 15.25 C3.98579969 17.56795217 3.06293201 19.79479244 1 24 C0.34 24 -0.32 24 -1 24 C-1.33 23.113125 -1.66 22.22625 -2 21.3125 C-4.32629968 17.45956616 -6.48184736 16.1719744 -10.35546875 14.078125 C-10.89816406 13.72234375 -11.44085938 13.3665625 -12 13 C-12 12.34 -12 11.68 -12 11 C-11.0925 10.608125 -10.185 10.21625 -9.25 9.8125 C-4.80237201 7.33209208 -2.77882445 4.16823667 0 0 Z " fill="#F06980" transform="translate(300,180)"/>
<path d="M0 0 C3.63 0.66 7.26 1.32 11 2 C11 35 11 68 11 102 C8.97263838 98.95895757 8.75058768 98.40021277 8.75949097 94.9947052 C8.75674164 94.18282242 8.75399231 93.37093964 8.75115967 92.53445435 C8.75835022 91.64756927 8.76554077 90.7606842 8.77294922 89.84692383 C8.77265717 88.91014297 8.77236511 87.97336212 8.77206421 87.00819397 C8.77345902 83.90771261 8.78902745 80.8074707 8.8046875 77.70703125 C8.80841709 75.55897656 8.81126432 73.41092016 8.81326294 71.26286316 C8.82090365 65.60587884 8.84055595 59.94899701 8.8626709 54.29205322 C8.88311987 48.52088813 8.89226263 42.74970649 8.90234375 36.97851562 C8.92380138 25.65229869 8.95794265 14.32615786 9 3 C3.91696314 2.88679144 3.91696314 2.88679144 -1 4 C-0.67 2.68 -0.34 1.36 0 0 Z " fill="#5383BB" transform="translate(180,346)"/>
<path d="M0 0 C2 1.5625 2 1.5625 3 4 C2.93375803 7.77579201 2.78061285 10.07482922 0.3125 13 C-2.89970645 14.38906225 -4.6936636 14.05521374 -8 13 C-9.9375 11.375 -9.9375 11.375 -11 9 C-10.875 5.375 -10.875 5.375 -10 2 C-6.29584707 -0.46943529 -4.37855495 -0.46913089 0 0 Z " fill="#90CB55" transform="translate(243,0)"/>
<path d="M0 0 C3 0.5625 3 0.5625 5.4375 2.6875 C7 5.5625 7 5.5625 7 8.6875 C6 11.5625 6 11.5625 4.3125 13.5 C1.12702876 14.96359489 -0.67881323 14.55178968 -4 13.5625 C-5.875 12.375 -5.875 12.375 -7 10.5625 C-7.54068562 6.93218224 -7.46379841 5.24035921 -5.375 2.1875 C-3 0.5625 -3 0.5625 0 0 Z " fill="#F6C74B" transform="translate(466,406.4375)"/>
<path d="M0 0 C0.33 0 0.66 0 1 0 C1.39512929 8.10258562 1.78654916 16.20533891 2.17345428 24.308321 C2.35329233 28.07233452 2.53432668 31.83628194 2.71826172 35.60009766 C2.89628736 39.24395064 3.07095301 42.88795161 3.24345398 46.53207016 C3.30926534 47.91051674 3.37621328 49.28890963 3.44441223 50.66724014 C4.38325407 69.68301845 4.38325407 69.68301845 4 78 C3 79 3 79 -0.0625 79.0625 C-1.031875 79.041875 -2.00125 79.02125 -3 79 C-2.505 78.01 -2.505 78.01 -2 77 C-0.68 77 0.64 77 2 77 C1.93941406 76.23075195 1.87882813 75.46150391 1.81640625 74.66894531 C-0.07638826 49.76413748 -0.22541101 24.96687079 0 0 Z " fill="#D9657A" transform="translate(169,412)"/>
<path d="M0 0 C0.33 0 0.66 0 1 0 C1.02464574 5.96313166 1.042834 11.92623395 1.05493164 17.8894043 C1.05997278 19.91968298 1.06680557 21.94995802 1.07543945 23.98022461 C1.08751467 26.89177347 1.09323034 29.8032745 1.09765625 32.71484375 C1.10281754 33.6283812 1.10797882 34.54191864 1.11329651 35.48313904 C1.11349168 37.65575427 1.06211805 39.82827296 1 42 C0.505 42.495 0.505 42.495 0 43 C-0.15971977 45.37338639 -0.2592433 47.72118272 -0.31640625 50.09765625 C-0.33718735 50.80651474 -0.35796844 51.51537323 -0.37937927 52.24571228 C-0.44494598 54.51787305 -0.5037923 56.79015264 -0.5625 59.0625 C-0.60567849 60.59962183 -0.64929255 62.1367315 -0.69335938 63.67382812 C-0.80063449 67.4490959 -0.90188137 71.2244836 -1 75 C-1.66 75 -2.32 75 -3 75 C-3.14516681 63.08771878 -2.7556987 51.23406805 -2.20043945 39.3359375 C-2.06238679 36.37256988 -1.93018266 33.40898384 -1.79882812 30.4453125 C-1.34088954 20.28410409 -0.80822441 10.14033368 0 0 Z " fill="#081328" transform="translate(138,405)"/>
<path d="M0 0 C4.29 0 8.58 0 13 0 C12.49202991 4.3177458 11.80317221 8.03302114 10 12 C9.67 12 9.34 12 9 12 C9 9.69 9 7.38 9 5 C9.66 5 10.32 5 11 5 C11 4.01 11 3.02 11 2 C7.7 2 4.4 2 1 2 C0.67 7.61 0.34 13.22 0 19 C1.32 19.33 2.64 19.66 4 20 C1.36 22.31 -1.28 24.62 -4 27 C-4.66 26.67 -5.32 26.34 -6 26 C-5.53980469 24.8759375 -5.07960938 23.751875 -4.60546875 22.59375 C-2.87027331 17.96656215 -2.03871604 13.37318739 -1.3125 8.5 C-1.18294922 7.67757812 -1.05339844 6.85515625 -0.91992188 6.0078125 C-0.60574306 4.00637712 -0.30178543 2.00334158 0 0 Z " fill="#70BCD7" transform="translate(412,97)"/>
<path d="M0 0 C5.32697239 1.45281065 8.36402802 5.08111378 12 9 C11.67 9.66 11.34 10.32 11 11 C10.34 11 9.68 11 9 11 C7.61767557 9.37373596 6.28062485 7.7074998 5 6 C4.957279 7.66611905 4.95936168 9.33382885 5 11 C5.33 11.33 5.66 11.66 6 12 C6.07258946 14.18639453 6.08373783 16.37500389 6.0625 18.5625 C6.05347656 19.76003906 6.04445313 20.95757812 6.03515625 22.19140625 C6.02355469 23.11824219 6.01195312 24.04507813 6 25 C9.3 25 12.6 25 16 25 C15.67 23.35 15.34 21.7 15 20 C14.67 20 14.34 20 14 20 C14 18.02 14 16.04 14 14 C17.53790403 17.69172595 17.59115883 21.09390595 18 26 C13.71 26 9.42 26 5 26 C4.80664062 24.7934375 4.61328125 23.586875 4.4140625 22.34375 C4.15121866 20.72913784 3.88818783 19.11455612 3.625 17.5 C3.49867188 16.70851563 3.37234375 15.91703125 3.2421875 15.1015625 C2.40359674 9.98615885 1.32215015 5.01267362 0 0 Z " fill="#74BED6" transform="translate(407,61)"/>
<path d="M0 0 C1.32 0.33 2.64 0.66 4 1 C3.835 1.78375 3.67 2.5675 3.5 3.375 C2.9376293 5.88208039 2.9376293 5.88208039 3 8 C3 10.66666667 3 13.33333333 3 16 C0.36 16 -2.28 16 -5 16 C-6 14 -6 14 -5.22265625 11.1796875 C-4.83980469 10.08914062 -4.45695312 8.99859375 -4.0625 7.875 C-3.68222656 6.77929688 -3.30195313 5.68359375 -2.91015625 4.5546875 C-2.60980469 3.71164063 -2.30945313 2.86859375 -2 2 C-1.34 2 -0.68 2 0 2 C0 1.34 0 0.68 0 0 Z " fill="#6FD5FA" transform="translate(362,69)"/>
<path d="M0 0 C0.33 1.32 0.66 2.64 1 4 C0.34 4 -0.32 4 -1 4 C-0.37189827 6.97017694 -0.37189827 6.97017694 1 10 C3.50995496 11.43923199 3.50995496 11.43923199 6 12 C5.67 13.32 5.34 14.64 5 16 C5.66 16 6.32 16 7 16 C7.33 16.66 7.66 17.32 8 18 C8.99 17.67 9.98 17.34 11 17 C10.34 19.31 9.68 21.62 9 24 C8.34 24 7.68 24 7 24 C6.69707031 23.32453125 6.39414062 22.6490625 6.08203125 21.953125 C2.20049142 13.68843095 -1.59455771 10.29625188 -10 7 C-10 6.34 -10 5.68 -10 5 C-6.7 3.35 -3.4 1.7 0 0 Z " fill="#EDC963" transform="translate(10,106)"/>
<path d="M0 0 C5.61 0 11.22 0 17 0 C17 2.31 17 4.62 17 7 C15 5 15 5 14 2 C9.71 1.67 5.42 1.34 1 1 C1.00523682 2.01312256 1.01047363 3.02624512 1.01586914 4.07006836 C1.03411234 7.86644592 1.04550191 11.66281969 1.05493164 15.45922852 C1.05992803 17.09530288 1.06672739 18.73137285 1.07543945 20.36743164 C1.16225376 37.10216541 1.16225376 37.10216541 0 45 C-0.33 45 -0.66 45 -1 45 C-1.15111492 29.97246076 -0.68904374 15.01130999 0 0 Z " fill="#ED6C83" transform="translate(150,359)"/>
<path d="M0 0 C1.32 0.33 2.64 0.66 4 1 C3.0409375 1.61875 3.0409375 1.61875 2.0625 2.25 C-0.17551904 3.77632448 -0.17551904 3.77632448 -0.375 6 C-1 8 -1 8 -3.3125 9.75 C-8.49947998 11.5082983 -13.56652487 11.60371946 -19 11 C-19.99 10.34 -20.98 9.68 -22 9 C-23.65549531 8.61500109 -25.3222433 8.27206865 -27 8 C-27 7.34 -27 6.68 -27 6 C-28.32 5.34 -29.64 4.68 -31 4 C-27.19932533 4.38006747 -24.36938652 5.23823317 -21.0625 7.0625 C-17.10959668 9.08387102 -14.4957107 9.86759329 -10 9 C-4.12928551 5.34855823 -4.12928551 5.34855823 0 0 Z " fill="#5482BD" transform="translate(439,28)"/>
<path d="M0 0 C2.375 -0.125 2.375 -0.125 5 0 C5.66 0.66 6.32 1.32 7 2 C6.625 5.625 6.625 5.625 6 9 C3.69 9.33 1.38 9.66 -1 10 C-3 7 -3 7 -2.625 4.8125 C-2.41875 4.214375 -2.2125 3.61625 -2 3 C-1.34 3 -0.68 3 0 3 C0 2.01 0 1.02 0 0 Z " fill="#85D046" transform="translate(237,2)"/>
<path d="M0 0 C8.58 0 17.16 0 26 0 C25.67 0.99 25.34 1.98 25 3 C13.615 2.505 13.615 2.505 2 2 C2.33 5.63 2.66 9.26 3 13 C1 11 1 11 0 0 Z " fill="#77C3DC" transform="translate(376,97)"/>
<path d="M0 0 C3 0.5625 3 0.5625 5.4375 2.6875 C7 5.5625 7 5.5625 7 8.6875 C6 11.5625 6 11.5625 4.3125 13.5 C1.12702876 14.96359489 -0.67881323 14.55178968 -4 13.5625 C-5.875 12.375 -5.875 12.375 -7 10.5625 C-7.54068562 6.93218224 -7.46379841 5.24035921 -5.375 2.1875 C-3 0.5625 -3 0.5625 0 0 Z M-4 2.5625 C-5.19988045 7.84449593 -5.19988045 7.84449593 -3 12.5625 C-0.36 12.2325 2.28 11.9025 5 11.5625 C5.16677282 8.14593976 5.16677282 8.14593976 5 4.5625 C3.04366025 2.15128141 3.04366025 2.15128141 -0.625 2.4375 C-2.295625 2.499375 -2.295625 2.499375 -4 2.5625 Z " fill="#E5C96F" transform="translate(466,406.4375)"/>
<path d="M0 0 C0.66 0.66 1.32 1.32 2 2 C2.66 1.67 3.32 1.34 4 1 C5.33333333 6.33333333 6.66666667 11.66666667 8 17 C0.28571429 13 0.28571429 13 -1 9 C-0.01 8.67 0.98 8.34 2 8 C1.67 7.01 1.34 6.02 1 5 C0.34 4.67 -0.32 4.34 -1 4 C-0.67 2.68 -0.34 1.36 0 0 Z " fill="#6BCBEB" transform="translate(364,107)"/>
<path d="M0 0 C2.01136276 2.55991624 3.62845496 5.04590299 5 8 C4.01 8.495 4.01 8.495 3 9 C2.34 8.67 1.68 8.34 1 8 C1 7.01 1 6.02 1 5 C0.34 5 -0.32 5 -1 5 C-1.433125 5.86625 -1.433125 5.86625 -1.875 6.75 C-3.25 9.5 -4.625 12.25 -6 15 C-7.98 14.34 -9.96 13.68 -12 13 C-12 12.34 -12 11.68 -12 11 C-11.0925 10.608125 -10.185 10.21625 -9.25 9.8125 C-4.80237201 7.33209208 -2.77882445 4.16823667 0 0 Z " fill="#E46E85" transform="translate(300,180)"/>
<path d="M0 0 C-0.33 10.89 -0.66 21.78 -1 33 C-2.485 33.495 -2.485 33.495 -4 34 C-5.32 32.68 -6.64 31.36 -8 30 C-7.01 29.67 -6.02 29.34 -5 29 C-4.01 29.99 -3.02 30.98 -2 32 C-2.33 23.42 -2.66 14.84 -3 6 C-3.99 5.67 -4.98 5.34 -6 5 C-1.125 0 -1.125 0 0 0 Z " fill="#5F89B2" transform="translate(192,304)"/>
<path d="M0 0 C1.80078125 0.98046875 1.80078125 0.98046875 3.80078125 3.98046875 C0.80078125 3.98046875 0.80078125 3.98046875 -2.19921875 1.98046875 C-2.19921875 2.97046875 -2.19921875 3.96046875 -2.19921875 4.98046875 C-3.18921875 5.47546875 -3.18921875 5.47546875 -4.19921875 5.98046875 C-4.85135167 8.0051013 -4.85135167 8.0051013 -5.19921875 9.98046875 C-7.17921875 10.31046875 -9.15921875 10.64046875 -11.19921875 10.98046875 C-10.86921875 12.63046875 -10.53921875 14.28046875 -10.19921875 15.98046875 C-11.18921875 15.32046875 -12.17921875 14.66046875 -13.19921875 13.98046875 C-12.69331855 9.74479451 -10.30568595 7.6211259 -7.38671875 4.66796875 C-6.51402344 3.76433594 -5.64132812 2.86070313 -4.7421875 1.9296875 C-2.19921875 -0.01953125 -2.19921875 -0.01953125 0 0 Z " fill="#4B7BB2" transform="translate(338.19921875,28.01953125)"/>
<path d="M0 0 C2.625 -0.1875 2.625 -0.1875 5 0 C3.4404735 3.82792868 1.16368164 6.36359864 -2 9 C-4.0625 9.125 -4.0625 9.125 -6 8 C-8.25 5.4375 -8.25 5.4375 -10 3 C-7.98177083 3.09765625 -5.96354167 3.1953125 -3.9453125 3.29296875 C-3.30335938 3.19628906 -2.66140625 3.09960938 -2 3 C-1.34 2.01 -0.68 1.02 0 0 Z " fill="#5388C8" transform="translate(341,147)"/>
<path d="M0 0 C2.31 1.98 4.62 3.96 7 6 C5.95475221 10.18099116 5.5894258 10.72845936 2.4375 13.25 C1.79683594 13.77078125 1.15617187 14.2915625 0.49609375 14.828125 C0.00238281 15.21484375 -0.49132812 15.6015625 -1 16 C-1 14.68 -1 13.36 -1 12 C-0.01 12 0.98 12 2 12 C1.67 10.68 1.34 9.36 1 8 C1.66 7.67 2.32 7.34 3 7 C1.35 6.67 -0.3 6.34 -2 6 C-1.34 5.67 -0.68 5.34 0 5 C0 3.35 0 1.7 0 0 Z " fill="#5886BF" transform="translate(446,136)"/>
<path d="M0 0 C2.75 -0.3125 2.75 -0.3125 6 0 C9.05661905 2.73486967 9.93974578 4.20163153 10.25 8.3125 C10.1675 9.199375 10.085 10.08625 10 11 C11.093125 10.9175 12.18625 10.835 13.3125 10.75 C14.529375 10.8325 15.74625 10.915 17 11 C18.73046875 13.015625 18.73046875 13.015625 20 15 C18.3743193 14.69106068 16.74947252 14.3777305 15.125 14.0625 C14.22007812 13.88847656 13.31515625 13.71445312 12.3828125 13.53515625 C10 13 10 13 8 12 C7.25881795 9.68925595 6.59793673 7.35188447 6 5 C5.79375 4.195625 5.5875 3.39125 5.375 2.5625 C5.25125 2.046875 5.1275 1.53125 5 1 C3.35 1 1.7 1 0 1 C0 0.67 0 0.34 0 0 Z " fill="#82D0E5" transform="translate(480,282)"/>
<path d="M0 0 C0.33 0 0.66 0 1 0 C1 5.28 1 10.56 1 16 C7.435 15.505 7.435 15.505 14 15 C14.33 15.66 14.66 16.32 15 17 C9.72 17.33 4.44 17.66 -1 18 C-1.02684312 15.18743719 -1.04676188 12.37512759 -1.0625 9.5625 C-1.07087891 8.76005859 -1.07925781 7.95761719 -1.08789062 7.13085938 C-1.0965143 5.08704779 -1.0522815 3.04316098 -1 1 C-0.67 0.67 -0.34 0.34 0 0 Z " fill="#5681B8" transform="translate(182,442)"/>
<path d="M0 0 C4.29 0 8.58 0 13 0 C12.49202991 4.3177458 11.80317221 8.03302114 10 12 C9.67 12 9.34 12 9 12 C9 9.69 9 7.38 9 5 C9.66 5 10.32 5 11 5 C11 4.01 11 3.02 11 2 C7.7 2 4.4 2 1 2 C1 4.31 1 6.62 1 9 C0.67 9 0.34 9 0 9 C0 6.03 0 3.06 0 0 Z " fill="#77C1DB" transform="translate(412,97)"/>
<path d="M0 0 C3.9166043 -0.0580966 7.83309763 -0.09362893 11.75 -0.125 C12.86117188 -0.14175781 13.97234375 -0.15851562 15.1171875 -0.17578125 C16.72207031 -0.18544922 16.72207031 -0.18544922 18.359375 -0.1953125 C19.34389648 -0.20578613 20.32841797 -0.21625977 21.34277344 -0.22705078 C24.05973111 0.00510382 25.68112513 0.60963727 28 2 C25.65921242 2.78026253 24.21466484 3.04443939 21.7734375 2.5390625 C12.93315047 0.82080953 3.65694289 1.76595022 -5 4 C-5 3.34 -5 2.68 -5 2 C-3.35 2 -1.7 2 0 2 C0 1.34 0 0.68 0 0 Z " fill="#4F7AB1" transform="translate(376,45)"/>
<path d="M0 0 C1 2 1 2 0.5 4.75 C-0.24425175 8.46142229 -0.24425175 8.46142229 1 14 C7.6 14 14.2 14 21 14 C21 14.33 21 14.66 21 15 C14.07 15 7.14 15 0 15 C-3.375 7.125 -3.375 7.125 -4 3 C-2.68 2.01 -1.36 1.02 0 0 Z " fill="#B67384" transform="translate(148,334)"/>
<path d="M0 0 C2.6855594 2.6855594 3.06049974 5.37621328 4 9 C3.071875 8.938125 2.14375 8.87625 1.1875 8.8125 C-1.98395103 8.69105736 -1.98395103 8.69105736 -3.875 10.5 C-4.24625 10.995 -4.6175 11.49 -5 12 C-5.66 11.67 -6.32 11.34 -7 11 C-6.20890398 9.72881136 -5.41709922 8.45806377 -4.625 7.1875 C-4.18414062 6.47980469 -3.74328125 5.77210937 -3.2890625 5.04296875 C-2.21811524 3.34567961 -1.11323761 1.66985642 0 0 Z " fill="#ECCC6B" transform="translate(18,94)"/>
<path d="M0 0 C2.97 0.495 2.97 0.495 6 1 C5.34 2.32 4.68 3.64 4 5 C4.66 5.33 5.32 5.66 6 6 C4.25 10.875 4.25 10.875 2 12 C-0.60018816 8.09971775 -0.15085514 4.52565431 0 0 Z " fill="#C3D0DC" transform="translate(185,470)"/>
<path d="M0 0 C0.66 0 1.32 0 2 0 C2 0.99 2 1.98 2 3 C2.66 3 3.32 3 4 3 C2.84826645 5.46800047 1.95216435 7.04783565 0 9 C-2.625 9.125 -2.625 9.125 -5 9 C-4.42676569 5.13066838 -2.61046448 2.84777943 0 0 Z " fill="#FB637C" transform="translate(299,185)"/>
<path d="M0 0 C-0.6875 1.9375 -0.6875 1.9375 -2 4 C-2.78375 4.103125 -3.5675 4.20625 -4.375 4.3125 C-7.03752106 4.72294179 -7.03752106 4.72294179 -8.1796875 6.5390625 C-9.18584802 8.32371217 -10.09670282 10.16114502 -11 12 C-11.33 12.66 -11.66 13.32 -12 14 C-12.99 14 -13.98 14 -15 14 C-13.37052474 8.62273165 -9.84108236 3.70796585 -4.9921875 0.79296875 C-3 0 -3 0 0 0 Z " fill="#E4C6B2" transform="translate(73,150)"/>
<path d="M0 0 C4.29 0 8.58 0 13 0 C13 0.33 13 0.66 13 1 C12.09507812 1.00386719 12.09507812 1.00386719 11.171875 1.0078125 C8.65738251 1.12948149 6.43163497 1.33529702 4 2 C1.57577814 4.88509913 1.57577814 4.88509913 0 8 C-0.99 8.33 -1.98 8.66 -3 9 C-2.41321669 5.47930015 -1.64350079 3.28700157 0 0 Z " fill="#D7889A" transform="translate(152,327)"/>
<path d="M0 0 C-0.99 1.485 -0.99 1.485 -2 3 C-4.80435411 3.05632424 -7.35146678 2.95814702 -10.125 2.6875 C-10.87910156 2.62626953 -11.63320312 2.56503906 -12.41015625 2.50195312 C-14.27463438 2.3485467 -16.13752498 2.17606541 -18 2 C-14.51703868 -0.32197421 -12.56903016 -0.40590968 -8.4375 -0.6875 C-7.28121094 -0.77386719 -6.12492188 -0.86023438 -4.93359375 -0.94921875 C-2 -1 -2 -1 0 0 Z " fill="#051025" transform="translate(199,459)"/>
<path d="M0 0 C3.98069267 2.87494471 6.43571997 5.82117329 9 10 C8.236875 9.835 7.47375 9.67 6.6875 9.5 C3.96403764 8.90854604 3.96403764 8.90854604 1 9 C0.67 6.03 0.34 3.06 0 0 Z " fill="#538ACB" transform="translate(105,330)"/>
<path d="M0 0 C4.13621084 3.3810038 7.81316569 6.66590534 11 11 C10.01 11.66 9.02 12.32 8 13 C8 11.68 8 10.36 8 9 C5.03 8.505 5.03 8.505 2 8 C2.33 7.34 2.66 6.68 3 6 C2.01 5.34 1.02 4.68 0 4 C0 2.68 0 1.36 0 0 Z " fill="#5786C1" transform="translate(443,30)"/>
<path d="M0 0 C5.61 0 11.22 0 17 0 C17 2.31 17 4.62 17 7 C15 5 15 5 14 2 C9.71 1.67 5.42 1.34 1 1 C1 3.64 1 6.28 1 9 C0.67 9 0.34 9 0 9 C0 6.03 0 3.06 0 0 Z " fill="#DD677E" transform="translate(150,359)"/>
<path d="M0 0 C2.31 0.66 4.62 1.32 7 2 C6.01 2.33 5.02 2.66 4 3 C2.89459074 5.78918149 2.89459074 5.78918149 3 8 C2.67 8.66 2.34 9.32 2 10 C0.35 8.35 -1.3 6.7 -3 5 C-1.125 1.125 -1.125 1.125 0 0 Z " fill="#5385C3" transform="translate(328,140)"/>
<path d="M0 0 C2.97 0.99 5.94 1.98 9 3 C9 3.66 9 4.32 9 5 C6.36 5.99 3.72 6.98 1 8 C1.020625 7.236875 1.04125 6.47375 1.0625 5.6875 C1.12942841 2.89814214 1.12942841 2.89814214 0 0 Z " fill="#EBC960" transform="translate(27,108)"/>
<path d="M0 0 C0.99 0.33 1.98 0.66 3 1 C3 4.96 3 8.92 3 13 C-0.12049016 8.83934645 -0.62724179 7.03223581 -1 2 C-0.67 1.34 -0.34 0.68 0 0 Z " fill="#68AEF0" transform="translate(186,311)"/>
<path d="M0 0 C-0.99 0.33 -1.98 0.66 -3 1 C-3 1.66 -3 2.32 -3 3 C-3.7425 3.144375 -4.485 3.28875 -5.25 3.4375 C-7.52027739 3.90187492 -9.75759479 4.41863569 -12 5 C-9.30839269 -1.21140148 -6.29369588 -1.18748979 0 0 Z " fill="#D8BBA5" transform="translate(110,113)"/>
<path d="M0 0 C0.33 0.66 0.66 1.32 1 2 C0.0625 4.625 0.0625 4.625 -1 7 C-2.32 7 -3.64 7 -5 7 C-5.33 7.66 -5.66 8.32 -6 9 C-6.99 9 -7.98 9 -9 9 C-9 9.66 -9 10.32 -9 11 C-9.66 10.67 -10.32 10.34 -11 10 C-7.50640535 6.40365256 -3.88901869 3.16548033 0 0 Z " fill="#6FBCD4" transform="translate(371,60)"/>
<path d="M0 0 C-2 2 -2 2 -5.625 2.125 C-6.73875 2.08375 -7.8525 2.0425 -9 2 C-9.33 4.64 -9.66 7.28 -10 10 C-10.33 10 -10.66 10 -11 10 C-11.125 2.25 -11.125 2.25 -10 0 C-6.18015204 -0.77811718 -3.73159669 -1.24386556 0 0 Z " fill="#83D2EB" transform="translate(499,304)"/>
<path d="M0 0 C0.88371589 3.53486356 1 6.3935243 1 10 C0.01 10.33 -0.98 10.66 -2 11 C-2 10.34 -2 9.68 -2 9 C-2.99 8.67 -3.98 8.34 -5 8 C-3.35 5.36 -1.7 2.72 0 0 Z " fill="#5184C4" transform="translate(429,114)"/>
<path d="M0 0 C-1.45836815 3.84478875 -3.36458299 5.1822915 -7 7 C-7.7425 7.165 -8.485 7.33 -9.25 7.5 C-9.8275 7.665 -10.405 7.83 -11 8 C-11.33 8.99 -11.66 9.98 -12 11 C-12.66 10.67 -13.32 10.34 -14 10 C-4.57142857 0 -4.57142857 0 0 0 Z " fill="#061229" transform="translate(369,51)"/>
<path d="M0 0 C0.33 0.99 0.66 1.98 1 3 C1.66 3 2.32 3 3 3 C3.33 4.32 3.66 5.64 4 7 C6.31 7 8.62 7 11 7 C11 6.34 11 5.68 11 5 C11.66 5 12.32 5 13 5 C12.375 6.9375 12.375 6.9375 11 9 C8.1875 10.0625 8.1875 10.0625 5 10 C2.125 7.875 2.125 7.875 0 5 C-0.3125 2.1875 -0.3125 2.1875 0 0 Z " fill="#94C263" transform="translate(232,4)"/>
<path d="M0 0 C0.33 0 0.66 0 1 0 C1.02685412 2.31243792 1.04632841 4.6249627 1.0625 6.9375 C1.07410156 8.22527344 1.08570313 9.51304687 1.09765625 10.83984375 C1 14 1 14 0 15 C-1.99958364 15.04080783 -4.00045254 15.04254356 -6 15 C-5.67 14.34 -5.34 13.68 -5 13 C-3.68 13 -2.36 13 -1 13 C-0.67 8.71 -0.34 4.42 0 0 Z " fill="#BE6172" transform="translate(172,476)"/>
<path d="M0 0 C0.33 0.99 0.66 1.98 1 3 C-3.88826816 9.84357542 -3.88826816 9.84357542 -8 11 C-10.75 10.625 -10.75 10.625 -13 10 C-13 9.67 -13 9.34 -13 9 C-11.7315625 8.7215625 -11.7315625 8.7215625 -10.4375 8.4375 C-5.90490954 6.54205308 -3.25312328 3.59960978 0 0 Z " fill="#081424" transform="translate(139,328)"/>
<path d="M0 0 C1.65 0.33 3.3 0.66 5 1 C5 1.66 5 2.32 5 3 C3.35 3.33 1.7 3.66 0 4 C0 4.928125 0 5.85625 0 6.8125 C0 8.875 0 10.9375 0 13 C-0.66 12.67 -1.32 12.34 -2 12 C-2.05422947 10.5629191 -2.09289723 9.12524538 -2.125 7.6875 C-2.14820313 6.88699219 -2.17140625 6.08648437 -2.1953125 5.26171875 C-2 3 -2 3 0 0 Z " fill="#E2C3AF" transform="translate(136,210)"/>
<path d="M0 0 C0.66 0.33 1.32 0.66 2 1 C2 9.58 2 18.16 2 27 C1.67 27 1.34 27 1 27 C0.98018066 26.28344238 0.96036133 25.56688477 0.93994141 24.82861328 C0.84490481 21.5936937 0.73513981 18.35943906 0.625 15.125 C0.57859375 13.43310547 0.57859375 13.43310547 0.53125 11.70703125 C0.49257812 10.63066406 0.45390625 9.55429687 0.4140625 8.4453125 C0.3826416 7.45031738 0.3512207 6.45532227 0.31884766 5.43017578 C0.22752917 2.82145483 0.22752917 2.82145483 -2 1 C-1.34 0.67 -0.68 0.34 0 0 Z " fill="#76B1E8" transform="translate(188,309)"/>
<path d="M0 0 C-5.66507011 3.08900201 -10.50857435 5.57664615 -17 6 C-14.38058783 4.25372522 -12.96175123 3.61277612 -10 3 C-10 2.34 -10 1.68 -10 1 C-3.375 -1.125 -3.375 -1.125 0 0 Z " fill="#07172D" transform="translate(415,131)"/>
<path d="M0 0 C3.96 0 7.92 0 12 0 C12.33 3.63 12.66 7.26 13 11 C11.0549 8.08235 10.54723683 6.37462715 10 3 C9.01 3 8.02 3 7 3 C7 2.34 7 1.68 7 1 C4.69 1 2.38 1 0 1 C0 0.67 0 0.34 0 0 Z " fill="#7DD6F3" transform="translate(354,98)"/>
<path d="M0 0 C1.22419163 3.93795909 0.48320272 6.16112237 -1 10 C-1.99 10 -2.98 10 -4 10 C-4.33 11.98 -4.66 13.96 -5 16 C-6.25348607 13.04893565 -6.01044806 12.02593537 -4.78515625 8.984375 C-4.21667969 7.91703125 -3.64820313 6.8496875 -3.0625 5.75 C-2.49660156 4.67234375 -1.93070312 3.5946875 -1.34765625 2.484375 C-0.90292969 1.66453125 -0.45820313 0.8446875 0 0 Z " fill="#5FA3BA" transform="translate(359,71)"/>
<path d="M0 0 C-0.5775 0.268125 -1.155 0.53625 -1.75 0.8125 C-4.05747896 1.95053246 -4.05747896 1.95053246 -6.125 3.625 C-8 5 -8 5 -10 5 C-10.12375 5.804375 -10.2475 6.60875 -10.375 7.4375 C-10.58125 8.283125 -10.7875 9.12875 -11 10 C-11.99 10.495 -11.99 10.495 -13 11 C-11.09349221 3.22731439 -11.09349221 3.22731439 -8 1 C-5.07175348 0.02391783 -3.04386724 -0.08226668 0 0 Z " fill="#071228" transform="translate(462,102)"/>
<path d="M0 0 C4.81395349 0.93604651 4.81395349 0.93604651 7 1.6875 C9.74865807 2.11697782 11.46422099 1.04031959 14 0 C14.99 0.33 15.98 0.66 17 1 C12.48653233 3.64202986 9.23611111 4.67875514 4 4 C1.5625 2 1.5625 2 0 0 Z " fill="#030F21" transform="translate(345,34)"/>
<path d="M0 0 C0.66 0.33 1.32 0.66 2 1 C1.01 2.485 1.01 2.485 0 4 C-1.32 4 -2.64 4 -4 4 C-4 4.99 -4 5.98 -4 7 C-3.01 7.33 -2.02 7.66 -1 8 C-1.66 8.66 -2.32 9.32 -3 10 C-4.32 8.35 -5.64 6.7 -7 5 C-2.25 1.125 -2.25 1.125 0 0 Z " fill="#6D9CCB" transform="translate(107,304)"/>
<path d="M0 0 C3 1 3 1 4 3 C4.99 2.67 5.98 2.34 7 2 C6.34 4.31 5.68 6.62 5 9 C4.34 9 3.68 9 3 9 C2.01 6.03 1.02 3.06 0 0 Z " fill="#E6C96E" transform="translate(14,121)"/>
<path d="M0 0 C1.3303125 0.5259375 1.3303125 0.5259375 2.6875 1.0625 C6.06203126 2.01755602 7.69686152 1.97151132 11 1 C10.34 2.32 9.68 3.64 9 5 C6.75 5.3125 6.75 5.3125 4 5 C1.6875 2.5 1.6875 2.5 0 0 Z " fill="#77C8E2" transform="translate(383,123)"/>
<path d="M0 0 C1.32 0 2.64 0 4 0 C4 0.66 4 1.32 4 2 C8.95 2 13.9 2 19 2 C19 2.33 19 2.66 19 3 C12.4 3 5.8 3 -1 3 C-0.67 2.01 -0.34 1.02 0 0 Z " fill="#6AD7F9" transform="translate(380,82)"/>
<path d="M0 0 C0 2 0 2 -1.4375 3.625 C-5.21977227 5.65451195 -8.79280836 5.24272259 -13 5 C-13 4.34 -13 3.68 -13 3 C-12.37351562 2.86722656 -11.74703125 2.73445313 -11.1015625 2.59765625 C-10.28429687 2.42105469 -9.46703125 2.24445312 -8.625 2.0625 C-7.81289063 1.88847656 -7.00078125 1.71445312 -6.1640625 1.53515625 C-3.88723554 0.9721142 -2.3530537 0 0 0 Z " fill="#5384BC" transform="translate(362,35)"/>
<path d="M0 0 C0 0.66 0 1.32 0 2 C-5.24385089 3.7479503 -9.47322267 4.19392201 -15 4 C-12.3851183 2.25674553 -10.9946567 1.58412043 -8.0625 0.875 C-7.39347656 0.70742188 -6.72445312 0.53984375 -6.03515625 0.3671875 C-4 0 -4 0 0 0 Z " fill="#4A77AD" transform="translate(49,323)"/>
<path d="M0 0 C1.33332095 2.6666419 0.67102033 4.16680303 0 7 C0.61875 7.268125 1.2375 7.53625 1.875 7.8125 C4 9 4 9 6 12 C3 12 3 12 0.25 9.875 C-2 7 -2 7 -1.875 3.75 C-1 1 -1 1 0 0 Z " fill="#719ECD" transform="translate(177,319)"/>
<path d="M0 0 C2 1 2 1 3.125 4.0625 C3.41375 5.031875 3.7025 6.00125 4 7 C6.31 7.33 8.62 7.66 11 8 C10.34 8.66 9.68 9.32 9 10 C5.57853565 9.85440577 3.66181673 9.61769562 1.125 7.25 C-0.18152386 4.63695229 -0.24038873 2.88466476 0 0 Z " fill="#87CBE3" transform="translate(476,307)"/>
<path d="M0 0 C0.60328125 0.40992188 1.2065625 0.81984375 1.828125 1.2421875 C2.62734375 1.78101563 3.4265625 2.31984375 4.25 2.875 C5.03890625 3.40867188 5.8278125 3.94234375 6.640625 4.4921875 C8.71555692 5.81822015 10.77614972 6.94928175 13 8 C9.23375329 9.25541557 7.62811066 8.37061958 4 7 C4 6.34 4 5.68 4 5 C3.01 4.67 2.02 4.34 1 4 C0.3125 1.9375 0.3125 1.9375 0 0 Z " fill="#DEC2B0" transform="translate(137,222)"/>
<path d="M0 0 C0.66 0.66 1.32 1.32 2 2 C1.79595261 5.19674245 1.53214642 7.30589597 -0.4375 9.875 C-2 11 -2 11 -4 11 C-3.67 9.35 -3.34 7.7 -3 6 C-2.34 6 -1.68 6 -1 6 C-0.67 4.02 -0.34 2.04 0 0 Z " fill="#E1C1AC" transform="translate(184,216)"/>
<path d="M0 0 C0.66 0 1.32 0 2 0 C2.48990279 5.06232884 0.7106322 9.32630846 -1 14 C-1.33 14 -1.66 14 -2 14 C-2.1799928 8.78020872 -1.97094808 4.92737019 0 0 Z " fill="#5587C4" transform="translate(20,338)"/>
<path d="M0 0 C3 1 3 1 4.0625 3 C4.371875 3.66 4.68125 4.32 5 5 C5.66 5.33 6.32 5.66 7 6 C6.67 6.99 6.34 7.98 6 9 C3.69 7.02 1.38 5.04 -1 3 C-0.67 2.01 -0.34 1.02 0 0 Z " fill="#E8C8B2" transform="translate(137,298)"/>
<path d="M0 0 C0.66 0.33 1.32 0.66 2 1 C0.50902342 4.7952131 -1.75700849 6.61042731 -5 9 C-5.33 7.68 -5.66 6.36 -6 5 C-5.34 5 -4.68 5 -4 5 C-4 4.34 -4 3.68 -4 3 C-3.01 3 -2.02 3 -1 3 C-0.67 2.01 -0.34 1.02 0 0 Z " fill="#E0C1AD" transform="translate(183,294)"/>
<path d="M0 0 C2.5 1.6875 2.5 1.6875 5 4 C5.3125 6.75 5.3125 6.75 5 9 C4.34 8.67 3.68 8.34 3 8 C3 7.67 3 7.34 3 7 C1.35 6.67 -0.3 6.34 -2 6 C-1.34 5.67 -0.68 5.34 0 5 C0 3.35 0 1.7 0 0 Z " fill="#5487CC" transform="translate(446,136)"/>
<path d="M0 0 C1 2 2 4 3 6 C1.37681021 6.36237263 -0.2486358 6.71465157 -1.875 7.0625 C-2.77992188 7.25972656 -3.68484375 7.45695312 -4.6171875 7.66015625 C-7 8 -7 8 -9 7 C-5.5647952 4.70986347 -4.014669 4.82157027 0 5 C0 3.35 0 1.7 0 0 Z " fill="#7ECDE6" transform="translate(476,288)"/>
<path d="M0 0 C4.455 0.99 4.455 0.99 9 2 C5.71299843 3.64350079 3.52069985 4.41321669 0 5 C0 3.35 0 1.7 0 0 Z " fill="#CFB29B" transform="translate(130,271)"/>
<path d="M0 0 C-1.3937282 4.43458973 -3.60582235 6.87378374 -7 10 C-7 8.68 -7 7.36 -7 6 C-6.34 6 -5.68 6 -5 6 C-5 4.68 -5 3.36 -5 2 C-2 0 -2 0 0 0 Z " fill="#E6C6B1" transform="translate(217,232)"/>
<path d="M0 0 C-1.423125 0.928125 -1.423125 0.928125 -2.875 1.875 C-5.94445109 3.81970969 -5.94445109 3.81970969 -8 6 C-8.33 4.35 -8.66 2.7 -9 1 C-5.57367167 -0.61798838 -3.61944899 -1.34053666 0 0 Z " fill="#F8D4BB" transform="translate(139,275)"/>
<path d="M0 0 C0.6875 1.8125 0.6875 1.8125 1 4 C-0.125 5.8125 -0.125 5.8125 -2 7 C-4.6875 6.6875 -4.6875 6.6875 -7 6 C-5.73134318 3.46268636 -4.50290879 3.21353154 -2 2 C-1.34 1.34 -0.68 0.68 0 0 Z " fill="#071222" transform="translate(446,151)"/>
<path d="M0 0 C0.66 0 1.32 0 2 0 C1.8125 2.8125 1.8125 2.8125 1 6 C-1.4375 7.9375 -1.4375 7.9375 -4 9 C-4.66 8.67 -5.32 8.34 -6 8 C-5.195625 7.236875 -4.39125 6.47375 -3.5625 5.6875 C-0.83200976 3.20569102 -0.83200976 3.20569102 0 0 Z " fill="#081327" transform="translate(453,142)"/>
<path d="M0 0 C3 2 3 2 4 5 C3.071875 4.979375 2.14375 4.95875 1.1875 4.9375 C-2.02286011 4.84230396 -2.02286011 4.84230396 -5 6 C-4.75 4.125 -4.75 4.125 -4 2 C-1.9375 0.75 -1.9375 0.75 0 0 Z " fill="#558BCA" transform="translate(63,363)"/>
<path d="M0 0 C1.32 0.33 2.64 0.66 4 1 C4 1.99 4 2.98 4 4 C4.99 4.33 5.98 4.66 7 5 C7.33 6.98 7.66 8.96 8 11 C6.66666667 9.33333333 5.33333333 7.66666667 4 6 C3.2575 5.0925 2.515 4.185 1.75 3.25 C0 1 0 1 0 0 Z " fill="#5381BB" transform="translate(423,60)"/>
<path d="M0 0 C2.97 0 5.94 0 9 0 C5.61885051 1.69057475 3.3700175 2.45815467 -0.25 3.125 C-1.58804687 3.37636719 -1.58804687 3.37636719 -2.953125 3.6328125 C-3.62859375 3.75398438 -4.3040625 3.87515625 -5 4 C-5 3.34 -5 2.68 -5 2 C-3.35 2 -1.7 2 0 2 C0 1.34 0 0.68 0 0 Z " fill="#5584BD" transform="translate(376,45)"/>
<path d="M0 0 C0.66666667 2 1.33333333 4 2 6 C2.66 6.33 3.32 6.66 4 7 C4 7.99 4 8.98 4 10 C4.66 10.33 5.32 10.66 6 11 C5.01 11 4.02 11 3 11 C1.61328125 9.57421875 1.61328125 9.57421875 0.3125 7.6875 C-0.12449219 7.07261719 -0.56148438 6.45773438 -1.01171875 5.82421875 C-2 4 -2 4 -2 1 C-1.34 0.67 -0.68 0.34 0 0 Z " fill="#5589C7" transform="translate(329,38)"/>
<path d="M0 0 C1.2065625 0.0309375 1.2065625 0.0309375 2.4375 0.0625 C1.05099567 2.83550866 -0.90503248 3.51746074 -3.5625 5.0625 C-4.90881825 6.04494845 -6.24691297 7.03926564 -7.5625 8.0625 C-7.5625 7.0725 -7.5625 6.0825 -7.5625 5.0625 C-6.9025 5.0625 -6.2425 5.0625 -5.5625 5.0625 C-5.0984375 4.1034375 -5.0984375 4.1034375 -4.625 3.125 C-3.05351796 0.07447605 -3.05351796 0.07447605 0 0 Z " fill="#020919" transform="translate(337.5625,25.9375)"/>
<path d="M0 0 C2.31 0.33 4.62 0.66 7 1 C6.34 2.98 5.68 4.96 5 7 C4.34 7 3.68 7 3 7 C2.01 4.69 1.02 2.38 0 0 Z " fill="#E06D85" transform="translate(296,197)"/>
<path d="M0 0 C0.66 0 1.32 0 2 0 C3.12880057 3.31114834 4.21302675 6.58978257 5 10 C4.01 10.33 3.02 10.66 2 11 C0.57741188 7.17679443 -0.24042276 4.08718695 0 0 Z " fill="#5283BE" transform="translate(441,54)"/>
<path d="M0 0 C0.33 0 0.66 0 1 0 C1 5.61 1 11.22 1 17 C0.01 16.67 -0.98 16.34 -2 16 C-1.34 10.72 -0.68 5.44 0 0 Z " fill="#5789C3" transform="translate(380,12)"/>
<path d="M0 0 C-0.6875 1.9375 -0.6875 1.9375 -2 4 C-4.79597286 4.86029934 -7.07171074 5 -10 5 C-3.87096774 0 -3.87096774 0 0 0 Z " fill="#D5B7A4" transform="translate(73,150)"/>
<path d="M0 0 C2.39223697 2.39223697 2.6758631 3.67759676 3 7 C2.01 8.485 2.01 8.485 1 10 C-0.80411967 7.24075815 -1.0127245 6.11027897 -0.625 2.75 C-0.41875 1.8425 -0.2125 0.935 0 0 Z " fill="#6BC7DC" transform="translate(396,62)"/>
<path d="M0 0 C1.98 0 3.96 0 6 0 C5.67 1.65 5.34 3.3 5 5 C4.34 5 3.68 5 3 5 C3 4.01 3 3.02 3 2 C1.35 2.66 -0.3 3.32 -2 4 C-1.34 2.68 -0.68 1.36 0 0 Z " fill="#78D1F0" transform="translate(479,283)"/>
<path d="M0 0 C1.65 0 3.3 0 5 0 C2.16569547 3.2542015 0.31392226 4.5206753 -4 5 C-4 4.34 -4 3.68 -4 3 C-3.01 2.67 -2.02 2.34 -1 2 C-0.67 1.34 -0.34 0.68 0 0 Z " fill="#D1B7A4" transform="translate(170,215)"/>
<path d="M0 0 C1.9451 2.91765 2.45276317 4.62537285 3 8 C-3.875 4.25 -3.875 4.25 -5 2 C-3.68 2.33 -2.36 2.66 -1 3 C-0.67 2.01 -0.34 1.02 0 0 Z " fill="#6EAABF" transform="translate(369,116)"/>
<path d="M0 0 C0.33 1.32 0.66 2.64 1 4 C1.66 4 2.32 4 3 4 C3 4.66 3 5.32 3 6 C1 7.625 1 7.625 -1 9 C-1.66 8.67 -2.32 8.34 -3 8 C-2.01 5.36 -1.02 2.72 0 0 Z " fill="#70B1C9" transform="translate(409,115)"/>
<path d="M0 0 C0.66 1.32 1.32 2.64 2 4 C0.63875 3.9071875 0.63875 3.9071875 -0.75 3.8125 C-4.28982642 4.01672076 -5.44931155 4.64551835 -8 7 C-8 6.01 -8 5.02 -8 4 C-7.34 4 -6.68 4 -6 4 C-6 3.34 -6 2.68 -6 2 C-4.02 1.34 -2.04 0.68 0 0 Z " fill="#0B212D" transform="translate(391,53)"/>
<path d="M0 0 C2 1 2 1 3.125 4.0625 C3.41375 5.031875 3.7025 6.00125 4 7 C2.68 7 1.36 7 0 7 C0 4.69 0 2.38 0 0 Z " fill="#5A8ACE" transform="translate(191,450)"/>
<path d="M0 0 C0.66 0.33 1.32 0.66 2 1 C2 2.65 2 4.3 2 6 C1.34 6 0.68 6 0 6 C0 5.34 0 4.68 0 4 C-1.32 3.67 -2.64 3.34 -4 3 C-2.68 2.01 -1.36 1.02 0 0 Z " fill="#5589C5" transform="translate(30,328)"/>
<path d="M0 0 C1.65 1.65 3.3 3.3 5 5 C4.34 5.66 3.68 6.32 3 7 C2.01 6.01 1.02 5.02 0 4 C-0.99 4.33 -1.98 4.66 -3 5 C-2.67 4.01 -2.34 3.02 -2 2 C-1.34 2 -0.68 2 0 2 C0 1.34 0 0.68 0 0 Z " fill="#689DD1" transform="translate(134,313)"/>
<path d="M0 0 C1.5 1.0625 1.5 1.0625 3 3 C3.1875 6.6875 3.1875 6.6875 3 10 C1 9 1 9 0.33203125 7.1875 C0.16058594 6.465625 -0.01085937 5.74375 -0.1875 5 C-0.36667969 4.278125 -0.54585937 3.55625 -0.73046875 2.8125 C-0.86388672 1.9153125 -0.86388672 1.9153125 -1 1 C-0.67 0.67 -0.34 0.34 0 0 Z " fill="#1C0E0A" transform="translate(199,170)"/>
<path d="M0 0 C0.33 0 0.66 0 1 0 C1 2.97 1 5.94 1 9 C0.34 9 -0.32 9 -1 9 C-2.0625 7.1875 -2.0625 7.1875 -3 5 C-2.67 4.01 -2.34 3.02 -2 2 C-1.67 2.33 -1.34 2.66 -1 3 C-0.67 2.01 -0.34 1.02 0 0 Z " fill="#F6D5BF" transform="translate(116,171)"/>
<path d="M0 0 C-2 1.5 -2 1.5 -4 3 C-4.70125 3.556875 -5.4025 4.11375 -6.125 4.6875 C-8 6 -8 6 -10 6 C-8.26240984 0.78722952 -5.3189028 -0.4432419 0 0 Z " fill="#5683BD" transform="translate(371,49)"/>
<path d="M0 0 C1.32 0.33 2.64 0.66 4 1 C3.360625 1.4125 2.72125 1.825 2.0625 2.25 C-0.20990931 4.17810487 -0.60196439 5.11424181 -1 8 C-1.99 8 -2.98 8 -4 8 C-2.68 5.36 -1.36 2.72 0 0 Z " fill="#5687C7" transform="translate(439,28)"/>
<path d="M0 0 C0.33 0 0.66 0 1 0 C1.06058594 0.75925781 1.12117187 1.51851563 1.18359375 2.30078125 C1.26738281 3.29464844 1.35117188 4.28851563 1.4375 5.3125 C1.55931641 6.79169922 1.55931641 6.79169922 1.68359375 8.30078125 C1.91812559 11.09375599 1.91812559 11.09375599 3 14 C1.68 13.34 0.36 12.68 -1 12 C-0.67 8.04 -0.34 4.08 0 0 Z " fill="#200708" transform="translate(173,479)"/>
<path d="M0 0 C1.32 0 2.64 0 4 0 C4 1.32 4 2.64 4 4 C5.65 4 7.3 4 9 4 C9 4.33 9 4.66 9 5 C3.5 5.36666667 3.5 5.36666667 1.125 3.625 C0 2 0 2 0 0 Z " fill="#6A9ACC" transform="translate(122,332)"/>
<path d="M0 0 C1.32 0.33 2.64 0.66 4 1 C4 1.99 4 2.98 4 4 C1.69 4.33 -0.62 4.66 -3 5 C-2.67 4.01 -2.34 3.02 -2 2 C-1.34 2 -0.68 2 0 2 C0 1.34 0 0.68 0 0 Z " fill="#699CCF" transform="translate(139,321)"/>
<path d="M0 0 C2.475 0.495 2.475 0.495 5 1 C5 1.66 5 2.32 5 3 C6.32 3.33 7.64 3.66 9 4 C8.67 4.66 8.34 5.32 8 6 C4.08597051 4.73058503 2.20927127 3.48832306 0 0 Z " fill="#D5B9A6" transform="translate(114,249)"/>
<path d="M0 0 C0.33 0.66 0.66 1.32 1 2 C0.25 4.0625 0.25 4.0625 -1 6 C-1.99 6.33 -2.98 6.66 -4 7 C-4.66 6.34 -5.32 5.68 -6 5 C-4.02 3.35 -2.04 1.7 0 0 Z " fill="#5584BF" transform="translate(421,125)"/>
<path d="M0 0 C0.66 0 1.32 0 2 0 C2 0.99 2 1.98 2 3 C2.99 3.33 3.98 3.66 5 4 C5 4.66 5 5.32 5 6 C3.35 6 1.7 6 0 6 C-1.125 2.25 -1.125 2.25 0 0 Z " fill="#6BD7F7" transform="translate(358,100)"/>
<path d="M0 0 C5.53846154 0.61538462 5.53846154 0.61538462 7.875 2.5625 C8.431875 3.2740625 8.431875 3.2740625 9 4 C8.67 4.66 8.34 5.32 8 6 C6.68 5.34 5.36 4.68 4 4 C4 3.34 4 2.68 4 2 C2.68 1.34 1.36 0.68 0 0 Z " fill="#6DBBCD" transform="translate(387,56)"/>
<path d="M0 0 C1.9375 0.875 1.9375 0.875 3.9375 3.875 C-3.0625 3.875 -3.0625 3.875 -5.0625 2.875 C-2.63475434 -0.15968208 -2.63475434 -0.15968208 0 0 Z " fill="#5078A8" transform="translate(338.0625,28.125)"/>
<path d="M0 0 C3.37462715 0.54723683 5.08235 1.0549 8 3 C7.071875 2.979375 6.14375 2.95875 5.1875 2.9375 C1.97713989 2.84230396 1.97713989 2.84230396 -1 4 C-0.67 2.68 -0.34 1.36 0 0 Z " fill="#5B89C3" transform="translate(180,346)"/>
<path d="M0 0 C3 3.75 3 3.75 3 6 C1.68 6.33 0.36 6.66 -1 7 C-1.04254356 5.00045254 -1.04080783 2.99958364 -1 1 C-0.67 0.67 -0.34 0.34 0 0 Z " fill="#6AAEF6" transform="translate(131,326)"/>
<path d="M0 0 C4.875 3.625 4.875 3.625 6 7 C4.68 7 3.36 7 2 7 C1.34 4.69 0.68 2.38 0 0 Z " fill="#4D7EB4" transform="translate(96,320)"/>
<path d="M0 0 C0.66 0 1.32 0 2 0 C2.185625 1.2065625 2.185625 1.2065625 2.375 2.4375 C2.58125 3.283125 2.7875 4.12875 3 5 C3.66 5.33 4.32 5.66 5 6 C2 6 2 6 0.3125 4.5 C-0.120625 4.005 -0.55375 3.51 -1 3 C-0.67 2.01 -0.34 1.02 0 0 Z " fill="#71A3D9" transform="translate(114,321)"/>
<path d="M0 0 C0.66 0.33 1.32 0.66 2 1 C0.515 4.465 0.515 4.465 -1 8 C-1.66 7.67 -2.32 7.34 -3 7 C-2.625 4.0625 -2.625 4.0625 -2 1 C-1.34 0.67 -0.68 0.34 0 0 Z " fill="#231611" transform="translate(138,213)"/>
<path d="M0 0 C2.29013653 3.4352048 2.17842973 4.985331 2 9 C-0.475 8.01 -0.475 8.01 -3 7 C-2.01 6.67 -1.02 6.34 0 6 C0 4.02 0 2.04 0 0 Z " fill="#7BD4F1" transform="translate(367,111)"/>
<path d="M0 0 C4.03384128 2.07143201 5.92856799 3.96615872 8 8 C4.63820226 6.55922954 2.40843732 4.75249979 0 2 C0 1.34 0 0.68 0 0 Z " fill="#EFD3C0" transform="translate(128,290)"/>
<path d="M0 0 C0 3 0 3 -1.3125 4.38671875 C-2.875 5.59114583 -4.4375 6.79557292 -6 8 C-6 5 -6 5 -4.6875 3.61328125 C-3.125 2.40885417 -1.5625 1.20442708 0 0 Z " fill="#21160F" transform="translate(204,248)"/>
<path d="M0 0 C1.9375 0.6875 1.9375 0.6875 4 2 C4.75 4.625 4.75 4.625 5 7 C4.01 7.495 4.01 7.495 3 8 C2.01 5.36 1.02 2.72 0 0 Z " fill="#77CAE7" transform="translate(379,114)"/>
<path d="M0 0 C2.97 0.99 5.94 1.98 9 3 C9 3.66 9 4.32 9 5 C6.03 4.01 3.06 3.02 0 2 C0 1.34 0 0.68 0 0 Z " fill="#E4CA7A" transform="translate(27,108)"/>
<path d="M0 0 C1.98 0 3.96 0 6 0 C6 0.99 6 1.98 6 3 C3.525 2.01 3.525 2.01 1 1 C1.33 2.32 1.66 3.64 2 5 C1.34 5 0.68 5 0 5 C0 3.35 0 1.7 0 0 Z " fill="#132731" transform="translate(406,60)"/>
</svg>
